<svg xmlns="http://www.w3.org/2000/svg" width="162.15" height="31.232" viewBox="0 0 162.15 31.232"><g transform="translate(-280.96 -405.403)"><path d="M955.036,494.381l.071.006-.071-.06Z" transform="translate(-525.371 -67.087)" fill="#c8c8c8"/><path d="M355.209,458.673V448.109h-5.724v11.256c0,.391.014.771.037,1.144,1.783-.177,3.7-.348,5.736-.514C355.226,459.588,355.209,459.148,355.209,458.673Z" transform="translate(-68.525 -32.219)" fill="#c8c8c8"/><path d="M402.921,448.109H397.2v11.442q2.757-.189,5.724-.365Z" transform="translate(-104.52 -32.219)" fill="#c8c8c8"/><path d="M377.365,408.629,373.85,405.4l-5.436,6.223,2.631,2.343Z" transform="translate(-82.806 0)" fill="#c8c8c8"/><path d="M355.985,514.6a6.5,6.5,0,0,0,2.708,1.94,11.493,11.493,0,0,0,4.284.692,30.931,30.931,0,0,0,4.84-.365,31.729,31.729,0,0,0,3.765-.787v-3.742c-6.334.539-11.735,1.146-15.925,1.812C355.76,514.3,355.868,514.456,355.985,514.6Z" transform="translate(-73.18 -80.676)" fill="#c8c8c8"/><path d="M455.133,513.069h4.75q1.3-2.533,2.617-5.639c-3.388.185-6.638.385-9.73.6Q453.962,510.778,455.133,513.069Z" transform="translate(-146.446 -76.973)" fill="#c8c8c8"/><path d="M439.694,458.366q-.56-1.69-1.119-3.476t-1.081-3.534q-.521-1.747-.907-3.246h-6.069q1.728,5.792,3.651,10.74,2.736-.14,5.6-.27C439.742,458.507,439.718,458.439,439.694,458.366Z" transform="translate(-129.659 -32.219)" fill="#c8c8c8"/><path d="M485.671,448.109h-5.919q-.385,1.5-.906,3.246t-1.08,3.534q-.559,1.786-1.137,3.476l-.042.123q2.782-.12,5.663-.228Q484.045,453.556,485.671,448.109Z" transform="translate(-164.414 -32.219)" fill="#c8c8c8"/><path d="M536.337,448.551a8.928,8.928,0,0,0-6.8-2.632,9.684,9.684,0,0,0-3.592.691,9.024,9.024,0,0,0-3.093,2.036,10.087,10.087,0,0,0-2.171,3.361,12.153,12.153,0,0,0-.82,4.425c6.106-.2,12.469-.366,18.966-.485Q538.746,451.1,536.337,448.551Zm-10.6,5.973a8.16,8.16,0,0,1,.365-1.44,3.86,3.86,0,0,1,.71-1.249,3.424,3.424,0,0,1,1.153-.865,3.847,3.847,0,0,1,1.652-.326,3.627,3.627,0,0,1,1.671.346,3.485,3.485,0,0,1,1.114.883,3.565,3.565,0,0,1,.653,1.229,5.967,5.967,0,0,1,.25,1.421Z" transform="translate(-197.063 -30.567)" fill="#c8c8c8"/><path d="M522.228,505.339a8.766,8.766,0,0,0,1.959,3.323,9.237,9.237,0,0,0,3.342,2.209,12.736,12.736,0,0,0,4.744.807,20.153,20.153,0,0,0,2.151-.116q1.075-.115,2.017-.288a16.211,16.211,0,0,0,1.709-.4,7.9,7.9,0,0,0,1.229-.461l-.768-4.648a11.652,11.652,0,0,1-2.478.711,16.55,16.55,0,0,1-3.092.288,6.639,6.639,0,0,1-3.918-1.037,4.119,4.119,0,0,1-.892-.851q-3.085.123-6.067.261C522.186,505.2,522.206,505.271,522.228,505.339Z" transform="translate(-198.8 -75.043)" fill="#c8c8c8"/><path d="M547.039,409.5l-2.2-2.536-3.854,2.958-3.854-2.958-2.119,2.536,5.974,5.263Z" transform="translate(-208.494 -1.18)" fill="#c8c8c8"/><path d="M620.831,451.574a7.535,7.535,0,0,1,1.133-.211,10.363,10.363,0,0,1,1.287-.1,11.208,11.208,0,0,1,2.228.211q1.037.212,1.805.4l.961-4.725a6.171,6.171,0,0,0-1.114-.326q-.653-.135-1.306-.231t-1.306-.154q-.654-.057-1.114-.058a20.926,20.926,0,0,0-4.667.48,34.424,34.424,0,0,0-3.631,1.018v8.342q2.851-.043,5.724-.074Z" transform="translate(-268.918 -30.921)" fill="#c8c8c8"/><path d="M615.107,509.055h5.724v-6.946q-2.884.061-5.724.134Z" transform="translate(-268.918 -72.958)" fill="#c8c8c8"/><path d="M697.268,455.782v-1.6a12.905,12.905,0,0,0-.422-3.419,6.082,6.082,0,0,0-1.441-2.612A6.565,6.565,0,0,0,692.7,446.5a13.251,13.251,0,0,0-4.226-.576q-1,0-1.978.1t-1.863.23q-.884.135-1.633.307t-1.248.327l.73,4.61a12.4,12.4,0,0,1,2.458-.6,19.617,19.617,0,0,1,2.881-.211,4.28,4.28,0,0,1,3.073.883,3.169,3.169,0,0,1,.884,2.343v.538a8.928,8.928,0,0,0-1.4-.25,18.232,18.232,0,0,0-1.978-.1,15.323,15.323,0,0,0-3.189.327,8.6,8.6,0,0,0-2.727,1.056c-.125.077-.245.159-.362.244C687.186,455.716,692.254,455.733,697.268,455.782Z" transform="translate(-319.195 -30.567)" fill="#c8c8c8"/><path d="M703.214,408.629,699.7,405.4l-5.436,6.223,2.632,2.343Z" transform="translate(-328.636 0)" fill="#c8c8c8"/><path d="M685.993,503.96a11.077,11.077,0,0,1-1.229.115q-.769.039-1.613.039a4.985,4.985,0,0,1-2.478-.519,1.962,1.962,0,0,1-.9-1.863,2.281,2.281,0,0,1,.135-.8q-2.9.031-5.772.073a7.777,7.777,0,0,0-.049.881A7.089,7.089,0,0,0,674.7,505a5.181,5.181,0,0,0,1.767,2.055,7.7,7.7,0,0,0,2.747,1.133,16.8,16.8,0,0,0,3.553.346,32.885,32.885,0,0,0,5.3-.365q2.19-.364,3.419-.634v-6.677q-2.751.007-5.493.025Z" transform="translate(-313.412 -72.012)" fill="#c8c8c8"/><path d="M789.665,409.5l-2.2-2.536-3.854,2.958-3.854-2.958-2.12,2.536,5.973,5.263Z" transform="translate(-391.539 -1.18)" fill="#c8c8c8"/><path d="M763.549,502.2a8.755,8.755,0,0,0,1.883,3.362,8.962,8.962,0,0,0,3.284,2.247,12.438,12.438,0,0,0,4.763.826,16.487,16.487,0,0,0,3.3-.307,13.461,13.461,0,0,0,2.5-.73l-.807-4.687a9.472,9.472,0,0,1-2.19.615,14.018,14.018,0,0,1-2.228.192q-2.92,0-4.091-1.5a4.875,4.875,0,0,1-.736-1.363q-3.006-.015-6.015-.017A12.843,12.843,0,0,0,763.549,502.2Z" transform="translate(-380.655 -71.999)" fill="#c8c8c8"/><path d="M769.31,452.411a4.533,4.533,0,0,1,3.784-1.575,9.243,9.243,0,0,1,2.151.23,14.543,14.543,0,0,1,1.767.538l1.191-4.571a14.414,14.414,0,0,0-2.612-.826,14.147,14.147,0,0,0-2.958-.288,10.777,10.777,0,0,0-4.379.845,9.662,9.662,0,0,0-5.321,5.666,11.717,11.717,0,0,0-.688,3.4q2.936.04,5.837.1A6.146,6.146,0,0,1,769.31,452.411Z" transform="translate(-379.924 -30.567)" fill="#c8c8c8"/><path d="M837.962,502.707a8.761,8.761,0,0,0,1.959,3.323,9.231,9.231,0,0,0,3.342,2.209,12.733,12.733,0,0,0,4.744.807,20.206,20.206,0,0,0,2.151-.115q1.075-.115,2.017-.288a16.228,16.228,0,0,0,1.709-.4,7.907,7.907,0,0,0,1.229-.461l-.768-4.648a11.654,11.654,0,0,1-2.478.711,16.553,16.553,0,0,1-3.092.288,6.638,6.638,0,0,1-3.918-1.037,3.852,3.852,0,0,1-1.34-1.61q-2.94-.056-5.907-.1A12.109,12.109,0,0,0,837.962,502.707Z" transform="translate(-436.781 -72.411)" fill="#c8c8c8"/><path d="M855.465,456.291q0-5.108-2.5-7.74a8.927,8.927,0,0,0-6.8-2.632,9.684,9.684,0,0,0-3.592.691,9.023,9.023,0,0,0-3.092,2.036,10.083,10.083,0,0,0-2.171,3.361,12.008,12.008,0,0,0-.817,4.236c6.642.217,13.007.505,18.943.872C855.455,456.825,855.465,456.546,855.465,456.291Zm-13.1-1.767a8.148,8.148,0,0,1,.365-1.44,3.866,3.866,0,0,1,.71-1.249,3.423,3.423,0,0,1,1.153-.865,3.847,3.847,0,0,1,1.652-.326,3.627,3.627,0,0,1,1.671.346,3.487,3.487,0,0,1,1.114.883,3.567,3.567,0,0,1,.653,1.229,5.955,5.955,0,0,1,.25,1.421Z" transform="translate(-435.942 -30.567)" fill="#c8c8c8"/><path d="M972.563,505.319l-.01-.013q-3.522-.186-7.167-.345c.431.522.853,1.053,1.254,1.605q.882,1.213,1.668,2.426t1.4,2.214h6.582q-.654-1.27-1.613-2.809T972.563,505.319Z" transform="translate(-533.18 -75.11)" fill="#c8c8c8"/><path d="M937.452,429.955c.023.019.047.041.071.06,2.813.244,5.483.51,7.987.8-.239-.292-.476-.587-.72-.873a26.454,26.454,0,0,0-2.382-2.482q2.305-2.262,4.245-4.389t3.976-4.466h-6.806q-.538.65-1.286,1.527t-1.592,1.852q-.845.975-1.746,1.967t-1.746,1.909V409l-5.724.922v19.636q2.948.21,5.724.449Z" transform="translate(-507.787 -2.715)" fill="#c8c8c8"/><path d="M931.728,510.213h5.724V503.86q-2.832-.116-5.724-.216Z" transform="translate(-507.787 -74.116)" fill="#c8c8c8"/></g></svg>