<?xml version="1.0" encoding="utf-8"?>
<!-- Generator: Adobe Illustrator 23.0.3, SVG Export Plug-In . SVG Version: 6.00 Build 0)  -->
<svg version="1.1" id="Vrstva_1" xmlns="http://www.w3.org/2000/svg" xmlns:xlink="http://www.w3.org/1999/xlink" x="0px" y="0px"
	 viewBox="0 0 250.5 41.3" style="enable-background:new 0 0 250.5 41.3;" xml:space="preserve">
<style type="text/css">
	.st0{fill:#95C63F;}
	.st1{fill:#006C94;}
	.st2{fill:#CCCCCC;}
</style>
<g id="Group_260" transform="translate(-294.196 -1425.043)">
	<path class="st0" d="M295.5,1461.1c0.3,0.6,0.7,1.2,1.1,1.7c1,1.2,2.2,2,3.6,2.6c1.8,0.7,3.7,1,5.7,0.9c2.1,0,4.3-0.2,6.4-0.5
		c1.7-0.2,3.3-0.6,5-1v-5.9C314.6,1459.1,303.4,1460,295.5,1461.1z"/>
	<path id="Path_1112" class="st1" d="M501.7,1455.1c-0.3-0.4-0.7-0.8-1-1.2c-1-1.2-2-2.3-3.2-3.3c2-2,3.9-3.9,5.6-5.8
		s3.5-3.8,5.3-5.9h-9c-0.5,0.6-1,1.2-1.7,2c-0.7,0.8-1.4,1.6-2.1,2.5c-0.7,0.9-1.5,1.7-2.3,2.6s-1.6,1.7-2.3,2.5v-22.3l-7.6,1.2
		v26.1C486.5,1453.7,498.2,1454.7,501.7,1455.1z"/>
	<path id="Path_1090" class="st1" d="M317.3,1438.9h-7.6v16c2.4-0.2,5-0.4,7.6-0.6V1438.9z"/>
	<path id="Path_1092" class="st1" d="M301.8,1452.9v-14h-7.6v14.9c0,0.9,0,1.7,0.1,2.6c2.4-0.3,4.9-0.5,7.6-0.8
		C301.8,1454.7,301.8,1453.8,301.8,1452.9z"/>
	<path id="Path_1093" class="st1" d="M312.2,1429.3l-4.7-4.3l-7.2,8.2l3.5,3.1L312.2,1429.3z"/>
	<path id="Path_1094" class="st1" d="M332.7,1452.5c-0.5-1.5-1-3-1.5-4.6c-0.5-1.6-1-3.1-1.4-4.7c-0.5-1.5-0.9-3-1.2-4.3h-8
		c1.6,5.4,3.3,10.3,5.1,14.8l0,0c2.4-0.1,4.9-0.3,7.4-0.4C332.9,1453.1,332.8,1452.8,332.7,1452.5z"/>
	<path id="Path_1095" class="st1" d="M347.5,1438.9h-7.8c-0.3,1.3-0.7,2.8-1.2,4.3c-0.5,1.5-0.9,3.1-1.4,4.7c-0.5,1.6-1,3.1-1.5,4.6
		c-0.1,0.3-0.2,0.5-0.3,0.7c2.5-0.1,5-0.2,7.5-0.4C344.4,1448.6,346,1443.9,347.5,1438.9z"/>
	<path id="Path_1096" class="st0" d="M330.9,1465.7h6.3c1.3-2.5,2.6-5.3,3.9-8.4c-4.7,0.3-9.3,0.6-13.7,0.9
		C328.6,1460.9,329.7,1463.4,330.9,1465.7z"/>
	<path id="Path_1097" class="st1" d="M371.4,1441.7c-2.4-2.4-5.6-3.7-9-3.5c-1.6,0-3.2,0.3-4.8,0.9c-1.5,0.6-2.9,1.5-4.1,2.7
		c-1.2,1.3-2.2,2.8-2.9,4.4c-0.8,2-1.1,4.1-1.1,6.2c0,0,0,0.1,0,0.1c8.1-0.3,16.5-0.6,25.1-0.8
		C374.6,1447.4,373.5,1444,371.4,1441.7z M357.3,1449.6c0.1-0.6,0.3-1.3,0.5-1.9c0.2-0.6,0.5-1.2,0.9-1.7c0.4-0.5,0.9-0.9,1.5-1.1
		c0.7-0.3,1.4-0.5,2.2-0.4c0.8,0,1.5,0.1,2.2,0.5c0.6,0.3,1.1,0.7,1.5,1.2c0.4,0.5,0.7,1,0.9,1.6c0.2,0.6,0.3,1.2,0.3,1.9
		L357.3,1449.6z"/>
	<path id="Path_1098" class="st0" d="M350.4,1458c0.5,1.6,1.4,3.1,2.6,4.4c1.2,1.3,2.8,2.3,4.4,2.9c2,0.8,4.1,1.1,6.3,1.1
		c1,0,1.9-0.1,2.8-0.2c0.9-0.1,1.8-0.2,2.7-0.4c0.8-0.1,1.5-0.3,2.3-0.5c0.6-0.2,1.1-0.4,1.6-0.6l-1-6.2c-1.1,0.4-2.2,0.7-3.3,0.9
		c-1.3,0.3-2.7,0.4-4.1,0.4c-1.8,0.1-3.6-0.4-5.2-1.4c-0.8-0.5-1.4-1.3-1.8-2.1c-2.6,0.1-5.2,0.2-7.7,0.4
		C350.1,1457.2,350.3,1457.6,350.4,1458z"/>
	<path id="Path_1099" class="st1" d="M370.4,1428.9l-2.9-3.4l-5.1,3.9l-5.1-3.9l-2.8,3.4l7.9,7L370.4,1428.9z"/>
	<path id="Path_1100" class="st0" d="M380.5,1465.7h7.6v-10.4c-2.5,0.1-5.1,0.1-7.6,0.2V1465.7z"/>
	<path id="Path_1101" class="st1" d="M388.1,1445.2c0.5-0.1,1-0.2,1.5-0.3c0.6-0.1,1.1-0.1,1.7-0.1c1,0,2,0.1,2.9,0.3
		c0.9,0.2,1.7,0.4,2.4,0.5l1.3-6.3c-0.5-0.2-1-0.3-1.5-0.4c-0.6-0.1-1.2-0.2-1.7-0.3c-0.6-0.1-1.2-0.2-1.7-0.2
		c-0.6-0.1-1.1-0.1-1.5-0.1c-2.1,0-4.1,0.2-6.2,0.6c-1.6,0.4-3.2,0.8-4.8,1.3v11.4c2.5,0,5-0.1,7.6-0.1L388.1,1445.2z"/>
	<path id="Path_1102" class="st1" d="M422.7,1451.5v-2.4c0-1.5-0.2-3-0.6-4.5c-0.3-1.3-1-2.5-1.9-3.5c-1-1-2.2-1.8-3.6-2.2
		c-1.8-0.6-3.7-0.8-5.6-0.8c-0.9,0-1.8,0-2.6,0.1c-0.9,0.1-1.7,0.2-2.5,0.3c-0.8,0.1-1.5,0.3-2.2,0.4c-0.7,0.2-1.2,0.3-1.7,0.4
		l1,6.1c1.1-0.4,2.1-0.6,3.3-0.8c1.3-0.2,2.5-0.3,3.8-0.3c1.9,0,3.3,0.4,4.1,1.2c0.8,0.8,1.2,1.9,1.2,3.1v0.7
		c-0.6-0.2-1.2-0.3-1.9-0.3c-0.9-0.1-1.7-0.1-2.6-0.1c-1.4,0-2.8,0.1-4.2,0.4c-1.3,0.3-2.5,0.7-3.6,1.4c-0.3,0.2-0.6,0.4-0.8,0.6
		C409.1,1451.4,415.9,1451.4,422.7,1451.5z"/>
	<path id="Path_1103" class="st0" d="M415.4,1460.2c-0.5,0.1-1.1,0.1-1.6,0.2c-0.7,0-1.4,0.1-2.1,0.1c-1.1,0.1-2.3-0.2-3.3-0.7
		c-0.8-0.5-1.3-1.5-1.2-2.5c0-0.5,0.1-1.1,0.4-1.5c0.3-0.4,0.6-0.7,1-0.9c-2.9,0-5.7,0.1-8.6,0.2c-0.2,0.8-0.3,1.6-0.3,2.5
		c0,1.4,0.2,2.8,0.8,4.1c0.5,1.1,1.3,2,2.3,2.7c1.1,0.7,2.3,1.2,3.6,1.5c1.5,0.3,3.1,0.5,4.7,0.5c2.3,0,4.7-0.1,7-0.5
		c1.9-0.3,3.4-0.6,4.5-0.8v-10.3c-2.4,0-4.8,0-7.3,0.1L415.4,1460.2z"/>
	<path id="Path_1104" class="st1" d="M418.1,1429.3l-4.7-4.3l-7.2,8.2l3.5,3.1L418.1,1429.3z"/>
	<path id="Path_1105" class="st1" d="M437.7,1446.8c1.2-1.5,3.1-2.2,5-2.1c1,0,1.9,0.1,2.8,0.3c0.8,0.2,1.6,0.4,2.3,0.7l1.6-6
		c-1.1-0.5-2.3-0.8-3.5-1.1c-1.3-0.3-2.6-0.4-3.9-0.4c-2,0-4,0.3-5.8,1.1c-3.3,1.4-5.8,4.1-7,7.5c-0.6,1.5-0.9,3.1-0.9,4.7
		c2.6,0,5.2,0.1,7.7,0.1C436,1449.9,436.6,1448.2,437.7,1446.8z"/>
	<path id="Path_1106" class="st1" d="M449.2,1428.9l-2.9-3.4l-5.1,3.9l-5.1-3.9l-2.8,3.4l7.9,7L449.2,1428.9z"/>
	<path id="Path_1107" class="st0" d="M428.4,1454.6c0.1,1.1,0.3,2.2,0.7,3.3c0.5,1.6,1.3,3.2,2.5,4.4c1.2,1.3,2.7,2.3,4.3,3
		c2,0.8,4.1,1.1,6.3,1.1c1.5,0,2.9-0.1,4.4-0.4c1.1-0.2,2.2-0.5,3.3-1l-1.1-6.2c-0.9,0.4-1.9,0.7-2.9,0.8c-1,0.2-2,0.2-2.9,0.3
		c-2.6,0-4.4-0.7-5.4-2c-0.7-1-1.2-2.1-1.4-3.3C433.6,1454.6,431,1454.6,428.4,1454.6z"/>
	<path id="Path_1108" class="st1" d="M477.5,1451.9c0-4.5-1.1-7.9-3.3-10.2c-2.4-2.4-5.6-3.7-9-3.5c-1.6,0-3.2,0.3-4.8,0.9
		c-1.5,0.6-2.9,1.5-4.1,2.7c-1.2,1.3-2.2,2.8-2.9,4.4c-0.7,1.9-1.1,3.8-1.1,5.8c8.8,0.3,17.2,0.6,25.1,1.1
		C477.5,1452.7,477.5,1452.3,477.5,1451.9z M460.2,1449.6c0.1-0.6,0.3-1.3,0.5-1.9c0.2-0.6,0.5-1.2,0.9-1.7c0.4-0.5,0.9-0.9,1.5-1.1
		c0.7-0.3,1.4-0.5,2.2-0.4c0.8,0,1.5,0.1,2.2,0.5c0.6,0.3,1.1,0.7,1.5,1.2c0.4,0.5,0.7,1,0.9,1.6c0.2,0.6,0.3,1.2,0.3,1.9
		L460.2,1449.6z"/>
	<path id="Path_1109" class="st0" d="M453.3,1458c0.5,1.6,1.4,3.1,2.6,4.4c1.2,1.3,2.8,2.3,4.4,2.9c2,0.8,4.1,1.1,6.3,1.1
		c1,0,1.9-0.1,2.8-0.2c0.9-0.1,1.8-0.2,2.7-0.4c0.8-0.1,1.5-0.3,2.3-0.5c0.6-0.2,1.1-0.4,1.6-0.6l-1-6.2c-1.1,0.4-2.2,0.7-3.3,0.9
		c-1.3,0.3-2.7,0.4-4.1,0.4c-1.8,0.1-3.6-0.4-5.2-1.4c-1.2-0.8-2-2.2-2.2-3.7c-2.5,0-5.1-0.1-7.7-0.1
		C452.7,1455.8,452.9,1456.9,453.3,1458z"/>
	<path id="Path_1110" class="st0" d="M483.4,1465.7h7.6v-9.8c-2.5-0.1-5-0.3-7.6-0.4V1465.7z"/>
	<path id="Path_1111" class="st0" d="M493.5,1456.4c0.9,1,1.7,2,2.5,3.1c0.8,1.1,1.5,2.1,2.2,3.2c0.7,1.1,1.3,2,1.9,2.9h8.7
		c-0.6-1.1-1.3-2.4-2.1-3.7s-1.8-2.7-2.8-4.1c-0.3-0.4-0.6-0.8-0.9-1.2c-3.1-0.2-6.4-0.5-9.8-0.7
		C493.2,1456.1,493.4,1456.3,493.5,1456.4z"/>
	<path id="Path_1113" class="st2" d="M516.3,1461.2c-1.1-0.9-2.6-0.9-3.7,0c-1.1,1.1-1.1,2.8,0,3.9c0,0,0,0,0,0
		c1.1,0.9,2.6,0.9,3.7,0C517.4,1464,517.4,1462.3,516.3,1461.2C516.3,1461.2,516.3,1461.2,516.3,1461.2z"/>
	<path id="Path_1114" class="st2" d="M529.9,1461.5c-0.5,0.2-1.1,0.4-1.6,0.5c-0.5,0.1-1.1,0.1-1.6,0.1c-1.1,0.1-2.2-0.3-3-1.1
		c-0.5-0.6-0.7-1.3-0.8-2.1c0-0.1,0-0.3,0-0.4c0-0.2,0-0.4,0-0.6c-0.1-1.1,0.3-2.2,0.9-3.1c0.7-0.8,1.7-1.2,2.8-1.2
		c0.5,0,1.1,0.1,1.6,0.2c0.4,0.1,0.9,0.2,1.3,0.4l0.9-3.4c-0.6-0.3-1.3-0.5-1.9-0.6c-0.7-0.1-1.5-0.2-2.2-0.2
		c-1.1,0-2.2,0.2-3.2,0.6c-1.8,0.8-3.3,2.3-3.9,4.2c-0.3,0.9-0.5,1.8-0.5,2.7c0,0.1,0,0.2,0,0.3s0,0.2,0,0.4c0,0.9,0.2,1.9,0.4,2.8
		c0.3,0.9,0.7,1.8,1.4,2.5c0.7,0.7,1.5,1.3,2.4,1.7c1.1,0.4,2.3,0.6,3.5,0.6c0.8,0,1.6-0.1,2.4-0.2c0.6-0.1,1.3-0.3,1.8-0.5
		L529.9,1461.5z"/>
	<path id="Path_1115" class="st2" d="M537.4,1461.9c0.6-0.8,1.2-1.6,1.8-2.5s1.3-1.7,2-2.4c0.7-0.8,1.3-1.5,1.9-2.1l1.4-1.5v-2.8
		h-11.9v3.5h6.4c-0.5,0.6-1.1,1.3-1.7,2c-0.6,0.7-1.2,1.5-1.8,2.3c-0.6,0.8-1.2,1.6-1.8,2.4c-0.6,0.8-1,1.5-1.4,2.2v2.5h12.4v-3.5
		L537.4,1461.9z"/>
</g>
</svg>
