<svg xmlns="http://www.w3.org/2000/svg" xmlns:xlink="http://www.w3.org/1999/xlink" width="123.024" height="45.025" viewBox="0 0 123.024 45.025"><defs><clipPath id="a"><path d="M123.024,0V45.025H0V0Z" fill="#c8c8c8"/></clipPath></defs><g clip-path="url(#a)"><path d="M43.247,97.71v16.383L29.833,97.71H24.669v26.983h6.169V108.31L44.29,124.693h5.127V97.71H43.251ZM8.789,125.154c6.359,0,9.714-3.277,9.714-9.944V97.71H2.814v5.011H12.3v12.836c0,2.969-1.311,4.472-3.816,4.472-1.928,0-3.545-1-5.011-2.969L0,121.223a10.852,10.852,0,0,0,8.789,3.933" transform="translate(0 -81.246)" fill="#c8c8c8"/><path d="M458.383,116.392a9.92,9.92,0,0,1-4.858,1.156,8.329,8.329,0,0,1-8.75-8.634c0-5.048,3.584-8.635,8.827-8.635a9.131,9.131,0,0,1,6.977,3.046l4.008-3.7c-2.62-3.045-6.553-4.664-11.294-4.664-8.6,0-14.841,5.82-14.841,13.955s6.244,13.953,14.725,13.953a18.614,18.614,0,0,0,10.908-3.431V108.492h-5.705v7.9Zm-32.994,6.475c4.7,0,8.6-1.7,11.139-4.819l-4.008-3.7a8.6,8.6,0,0,1-6.784,3.2,8.634,8.634,0,0,1,0-17.269,8.682,8.682,0,0,1,6.784,3.161l4.008-3.7c-2.544-3.083-6.436-4.78-11.1-4.78-8.4,0-14.647,5.82-14.647,13.955s6.244,13.953,14.608,13.953" transform="translate(-341.566 -78.96)" fill="#c8c8c8"/></g></svg>