<svg xmlns="http://www.w3.org/2000/svg" width="252" height="42" fill="none" viewBox="0 0 252 42">
  <path fill="#006C94" d="M24.016 14.18h-7.574v15.98c2.442-.2 4.967-.393 7.574-.577V14.18Z"/>
  <path fill="#95C63F" d="M16.442 34.816c-.475.067-1.017.126-1.627.178a23.57 23.57 0 0 1-1.015.06c-4.144.4-8 .828-11.507 1.268.298.612.662 1.19 1.086 1.722a8.6 8.6 0 0 0 3.584 2.567c1.814.662 3.737.973 5.667.915a40.96 40.96 0 0 0 6.4-.483 42.036 42.036 0 0 0 4.981-1.042V34.14c-2.611.214-5.136.435-7.574.662l.005.014Z"/>
  <path fill="#006C94" d="M8.513 28.158V14.18H.943v14.893c-.001.863.044 1.726.136 2.585 2.393-.28 4.929-.549 7.609-.808a19.124 19.124 0 0 1-.175-2.692ZM18.932 4.573 14.281.303 7.089 8.538l3.482 3.1 8.361-7.065ZM39.41 27.752c-.494-1.49-.987-3.024-1.48-4.6a385.92 385.92 0 0 1-1.43-4.677c-.46-1.541-.86-2.975-1.2-4.3h-8.031c1.6 5.355 3.292 10.302 5.076 14.842l.006.015c2.4-.146 4.85-.286 7.352-.419a65.809 65.809 0 0 1-.293-.86ZM54.257 14.18h-7.832a119.2 119.2 0 0 1-1.2 4.3 348.77 348.77 0 0 1-1.429 4.677 186.077 186.077 0 0 1-1.505 4.6l-.256.745c2.456-.125 4.953-.244 7.49-.357 1.66-4.302 3.237-8.957 4.732-13.965Z"/>
  <path fill="#95C63F" d="M37.625 40.917h6.285c1.275-2.493 2.565-5.3 3.868-8.42-4.706.274-9.268.566-13.654.875a118.937 118.937 0 0 0 3.501 7.545Z"/>
  <path fill="#006C94" d="M78.098 16.95a11.815 11.815 0 0 0-9-3.482c-1.628 0-3.241.31-4.753.915a11.94 11.94 0 0 0-4.092 2.694 13.35 13.35 0 0 0-2.872 4.448 16.344 16.344 0 0 0-1.093 6.226v.1c8.1-.318 16.525-.574 25.106-.762-.012-4.454-1.11-7.834-3.296-10.14Zm-14.029 7.9c.103-.649.264-1.287.483-1.906a5.117 5.117 0 0 1 .94-1.652 4.526 4.526 0 0 1 1.525-1.144 5.089 5.089 0 0 1 2.185-.432 4.801 4.801 0 0 1 2.211.457 4.62 4.62 0 0 1 1.474 1.169 4.71 4.71 0 0 1 .864 1.627c.186.611.297 1.243.33 1.88H64.069Z"/>
  <path fill="#95C63F" d="M57.129 33.241a11.6 11.6 0 0 0 2.592 4.4 12.23 12.23 0 0 0 4.422 2.923 16.854 16.854 0 0 0 6.277 1.067c.951 0 1.901-.051 2.847-.153a35.941 35.941 0 0 0 2.669-.381 21.336 21.336 0 0 0 2.262-.533 10.476 10.476 0 0 0 1.627-.61l-1.017-6.15a15.408 15.408 0 0 1-3.279.94 21.886 21.886 0 0 1-4.092.382 8.786 8.786 0 0 1-5.185-1.373 5.1 5.1 0 0 1-1.771-2.12c-2.6.12-5.167.244-7.7.374.099.417.215.829.348 1.234Z"/>
  <path fill="#006C94" d="M77.132 4.167 74.225.812l-5.1 3.914-5.1-3.914-2.8 3.355 7.9 6.963 8.007-6.963Z"/>
  <path fill="#95C63F" d="M87.247 40.917h7.574V30.511c-2.533.07-5.058.147-7.574.228v10.178Z"/>
  <path fill="#006C94" d="M94.821 20.483a9.935 9.935 0 0 1 1.5-.279c.564-.077 1.131-.12 1.7-.127.99-.006 1.977.088 2.948.28.915.186 1.711.364 2.389.533l1.271-6.252a8.155 8.155 0 0 0-1.474-.432 30.981 30.981 0 0 0-1.728-.305 28.031 28.031 0 0 0-1.728-.2 17.23 17.23 0 0 0-1.474-.076 27.688 27.688 0 0 0-6.176.635 45.49 45.49 0 0 0-4.8 1.347V26.98c2.516-.046 5.04-.086 7.574-.121l-.002-6.375Zm34.614 6.274v-2.361a17.05 17.05 0 0 0-.559-4.524 8.054 8.054 0 0 0-1.906-3.456 8.684 8.684 0 0 0-3.583-2.185 17.526 17.526 0 0 0-5.591-.763 26.7 26.7 0 0 0-2.618.127c-.863.085-1.685.185-2.465.3-.78.12-1.5.255-2.161.407-.661.152-1.211.296-1.652.432l.966 6.1a16.418 16.418 0 0 1 3.253-.788 25.95 25.95 0 0 1 3.812-.28c1.933 0 3.289.39 4.066 1.169a4.197 4.197 0 0 1 1.169 3.1v.712c-.608-.16-1.229-.27-1.855-.33a24.022 24.022 0 0 0-2.617-.127 20.282 20.282 0 0 0-4.219.432 11.36 11.36 0 0 0-3.609 1.4c-.292.18-.572.38-.836.6 6.829-.032 13.655-.021 20.405.035Z"/>
  <path fill="#95C63F" d="M122.167 35.427a14.7 14.7 0 0 1-1.627.152c-.679.034-1.39.051-2.135.051a6.601 6.601 0 0 1-3.279-.686 2.597 2.597 0 0 1-1.195-2.465 2.69 2.69 0 0 1 .407-1.525 2.802 2.802 0 0 1 1-.9c-2.871.047-5.741.1-8.612.162a9.032 9.032 0 0 0-.318 2.464 9.392 9.392 0 0 0 .813 4.117 6.852 6.852 0 0 0 2.338 2.719 10.205 10.205 0 0 0 3.635 1.5c1.546.32 3.122.473 4.7.458a43.477 43.477 0 0 0 7.014-.483c1.933-.321 3.441-.601 4.524-.839V29.881c-2.416.02-4.839.044-7.268.075l.003 5.471Z"/>
  <path fill="#006C94" d="m124.81 4.573-4.651-4.27-7.192 8.235 3.482 3.1 8.361-7.065Zm19.595 17.485a5.995 5.995 0 0 1 5.006-2.084c.958-.01 1.913.092 2.847.305.794.187 1.575.425 2.338.712l1.576-6.049a19.1 19.1 0 0 0-3.456-1.093 18.72 18.72 0 0 0-3.914-.38 14.259 14.259 0 0 0-5.794 1.117 12.783 12.783 0 0 0-7.04 7.5 15.582 15.582 0 0 0-.925 4.732c2.592.031 5.169.07 7.73.116a8.257 8.257 0 0 1 1.632-4.876Zm11.563-17.891L153.061.812l-5.1 3.914-5.1-3.914-2.8 3.355 7.9 6.963 8.007-6.963Z"/>
  <path fill="#95C63F" d="M135.15 29.847c.118 1.107.34 2.201.664 3.267a11.592 11.592 0 0 0 2.491 4.448 11.867 11.867 0 0 0 4.346 2.974 16.458 16.458 0 0 0 6.3 1.093 21.82 21.82 0 0 0 4.371-.407 17.777 17.777 0 0 0 3.3-.966l-1.067-6.2c-.93.387-1.904.66-2.9.813-.974.163-1.96.248-2.948.254-2.575 0-4.38-.661-5.413-1.983a7.326 7.326 0 0 1-1.363-3.309c-2.575-.001-5.169.004-7.781.016Z"/>
  <path fill="#006C94" d="M184.282 27.19c0-4.505-1.1-7.919-3.3-10.241a11.816 11.816 0 0 0-9-3.482c-1.628 0-3.241.31-4.753.915a11.947 11.947 0 0 0-4.092 2.694 13.35 13.35 0 0 0-2.872 4.448 16.058 16.058 0 0 0-1.085 5.806c8.778.275 17.2.642 25.061 1.109.023-.445.041-.865.041-1.248Zm-17.333-2.337a10.79 10.79 0 0 1 .483-1.906 5.124 5.124 0 0 1 .94-1.652 4.522 4.522 0 0 1 1.525-1.144 5.09 5.09 0 0 1 2.185-.432 4.798 4.798 0 0 1 2.211.457 4.624 4.624 0 0 1 1.474 1.169 4.71 4.71 0 0 1 .864 1.627c.186.611.297 1.243.33 1.88h-10.012Z"/>
  <path fill="#95C63F" d="M160.009 33.241a11.596 11.596 0 0 0 2.592 4.4 12.231 12.231 0 0 0 4.422 2.923 16.858 16.858 0 0 0 6.277 1.067c.951 0 1.901-.051 2.847-.153a35.917 35.917 0 0 0 2.669-.381 21.432 21.432 0 0 0 2.262-.534 10.438 10.438 0 0 0 1.627-.61l-1.017-6.15a15.442 15.442 0 0 1-3.279.94 21.893 21.893 0 0 1-4.092.381 8.785 8.785 0 0 1-5.185-1.372 5.032 5.032 0 0 1-2.184-3.7c-2.521-.047-5.073-.086-7.657-.117.125 1.124.366 2.232.718 3.306Zm30.116 7.675h7.573v-9.8a758.744 758.744 0 0 0-7.573-.372v10.172Zm10.135-9.221a43.336 43.336 0 0 1 2.461 3.082 72.225 72.225 0 0 1 2.207 3.21c.693 1.07 1.311 2.047 1.852 2.93h8.709a52.822 52.822 0 0 0-2.135-3.717 56.976 56.976 0 0 0-2.8-4.073c-.308-.412-.626-.813-.941-1.217a477.284 477.284 0 0 0-9.768-.667c.138.148.278.295.415.452Z"/>
  <path fill="#006C94" d="M197.698 29.198c.08.064.16.137.24.2 3.678.3 7.178.635 10.47.995-.333-.407-.663-.817-1-1.216a34.901 34.901 0 0 0-3.151-3.284 146.49 146.49 0 0 0 5.617-5.807 341.594 341.594 0 0 0 5.261-5.909h-9.005c-.475.574-1.041 1.248-1.7 2.021a404.23 404.23 0 0 1-2.107 2.451c-.745.86-1.515 1.727-2.31 2.6-.795.873-1.565 1.715-2.311 2.526V1.467l-7.573 1.22v26.121c2.6.177 5.124.367 7.573.568l-.004-.178Z"/>
  <path fill="#CCC" d="M223.034 36.452a2.85 2.85 0 0 0-3.666 0 2.739 2.739 0 0 0-.81 1.947 2.745 2.745 0 0 0 .81 1.946 2.853 2.853 0 0 0 3.666 0 2.739 2.739 0 0 0 .81-1.946 2.744 2.744 0 0 0-.81-1.947Zm13.567.355c-.52.216-1.064.37-1.62.455-.545.091-1.096.139-1.648.142a3.63 3.63 0 0 1-3.026-1.108 4.249 4.249 0 0 1-.8-2.1 8.108 8.108 0 0 1-.065-1.026 4.801 4.801 0 0 1 .923-3.069 3.348 3.348 0 0 1 2.8-1.165 6.815 6.815 0 0 1 1.591.171c.444.105.88.239 1.307.4l.881-3.381a10.71 10.71 0 0 0-1.932-.61 10.487 10.487 0 0 0-2.188-.214 7.972 7.972 0 0 0-3.239.625 7.15 7.15 0 0 0-3.935 4.191 8.699 8.699 0 0 0-.511 2.71c0 .114-.014.228-.014.345 0 .117.009.238.012.357.018.933.162 1.86.428 2.754a6.475 6.475 0 0 0 1.392 2.486 6.648 6.648 0 0 0 2.43 1.662c1.123.432 2.32.64 3.523.611.82.007 1.638-.07 2.443-.227.632-.12 1.25-.3 1.847-.54l-.599-3.469Zm7.571.313a49.575 49.575 0 0 1 1.836-2.472 79.267 79.267 0 0 1 2.008-2.444c.667-.777 1.288-1.487 1.865-2.131l1.381-1.534V25.7h-11.877v3.523h6.365a142.206 142.206 0 0 0-3.509 4.347 73.912 73.912 0 0 0-1.762 2.372 29.413 29.413 0 0 0-1.435 2.2v2.5h12.36V37.12h-7.232Z"/>
</svg>
