<svg xmlns="http://www.w3.org/2000/svg" width="462" height="455" fill="none" viewBox="0 0 462 455">
  <path fill="#003A65" d="M238.278 40.662h-12.907v394.633h12.907V40.662Z"/>
  <path fill="#AFAFAE" d="M238.278 425.176h-12.907v10.119h12.907v-10.119Z" style="mix-blend-mode:multiply"/>
  <path fill="#002246" d="M238.278 40.662h-6.484v394.633h6.484V40.662Z"/>
  <path fill="#003A65" d="M247.297 381.816h-30.944v53.479h30.944v-53.479Z"/>
  <path fill="#AFAFAE" d="M247.297 424.872h-30.944v10.423h30.944v-10.423Z" style="mix-blend-mode:multiply"/>
  <path fill="#002246" d="M247.297 381.816h-15.545v53.479h15.545v-53.479Z"/>
  <path fill="#003A65" d="M84.57 128.578 4.465 392.021l1.937.589 80.106-263.443-1.937-.589Z"/>
  <path fill="#003A65" d="m83.233 128.205-8.816 28.993 4.841 1.472 8.817-28.993-4.842-1.472ZM9.34 370.787l-6.323 20.794 4.841 1.472 6.323-20.793-4.841-1.473Z"/>
  <path fill="#003A65" d="m86.37 128.655-1.937.589 80.106 263.443 1.937-.589L86.37 128.655Z"/>
  <path fill="#003A65" d="m87.705 128.213-4.84 1.472 8.815 28.985 4.84-1.472-8.815-28.985Zm73.894 242.581-4.841 1.472 6.323 20.794 4.841-1.473-6.323-20.793Z"/>
  <path fill="#FFE44E" d="M165.51 392.318a94.022 94.022 0 0 0-4.709 12.858c-2.59 8.546-16.721 15.538-31.4 15.538H41.55c-14.682 0-28.814-6.992-31.4-15.538a94.009 94.009 0 0 0-4.709-12.858H165.51Z"/>
  <path fill="#FFAE00" d="M85.276 392.318v28.4h44.122c14.682 0 28.814-6.992 31.4-15.538a94.022 94.022 0 0 1 4.709-12.858l-80.231-.004Z"/>
  <path fill="#FDAB46" d="M162.529 399.848a74.92 74.92 0 0 1 2.981-7.534H5.438a74.717 74.717 0 0 1 2.98 7.534h154.111Z" style="mix-blend-mode:multiply"/>
  <path fill="#FFEE92" d="M170.948 391.376c0 2.2-2.4 4-5.339 4H5.339c-2.936 0-5.339-1.8-5.339-4s2.4-4 5.339-4h160.27c2.936-.004 5.339 1.798 5.339 4Z"/>
  <path fill="#FFCB0E" d="M165.609 387.372H85.276v8.009h80.333c2.936 0 5.339-1.8 5.339-4s-2.403-4.009-5.339-4.009Z"/>
  <path fill="#002246" d="m375.626 52.241-80.107 263.367 1.936.589L377.563 52.83l-1.937-.589Z"/>
  <path fill="#002246" d="m374.285 51.79-8.816 28.993 4.841 1.472 8.817-28.993-4.842-1.472Zm-73.893 242.582-6.323 20.794 4.841 1.472 6.323-20.794-4.841-1.472Z"/>
  <path fill="#002246" d="m377.422 52.24-1.937.589 80.098 263.369 1.937-.589L377.422 52.24Z"/>
  <path fill="#002246" d="m378.757 51.798-4.84 1.472 8.815 28.985 4.84-1.472-8.815-28.985Zm73.895 242.581-4.842 1.472 6.323 20.794 4.841-1.473-6.322-20.793Z"/>
  <path fill="#FFE44E" d="M456.562 315.907a94.022 94.022 0 0 0-4.709 12.858c-2.59 8.546-16.721 15.539-31.4 15.539h-87.851c-14.682 0-28.813-6.992-31.4-15.539a94.022 94.022 0 0 0-4.709-12.858h160.069Z"/>
  <path fill="#FFAE00" d="M376.328 315.907v28.4h44.122c14.682 0 28.814-6.992 31.4-15.539a93.961 93.961 0 0 1 4.716-12.861h-80.238Z"/>
  <path fill="#FDAB46" d="M453.582 323.437a74.677 74.677 0 0 1 2.98-7.534H296.49a74.677 74.677 0 0 1 2.98 7.534h154.112Z" style="mix-blend-mode:multiply"/>
  <path fill="#FFEE92" d="M462 314.961c0 2.2-2.4 4-5.339 4H296.39c-2.936 0-5.339-1.8-5.339-4s2.4-4 5.339-4h160.27c2.937-.004 5.34 1.798 5.34 4Z"/>
  <path fill="#FFCB0E" d="M456.661 310.957h-80.333v8.008h80.333c2.936 0 5.339-1.8 5.339-4s-2.403-4.008-5.339-4.008Z"/>
  <path fill="#AFAFAE" d="M225.371 49.35v81.43c4.27.78 8.649.746 12.907-.1V49.388a34.303 34.303 0 0 0-12.907-.037Z" style="mix-blend-mode:multiply"/>
  <path fill="#002246" d="m377.567 55.021-140.938 55.126L87.01 132.875l-2.08-7.762 142.584-48.681 147.972-29.173 2.081 7.762Z"/>
  <path fill="#003A65" d="M227.551 76.423 84.93 125.115l2.08 7.762 149.58-22.722-9.039-33.732Z"/>
  <path fill="#002246" d="M383.107 41.74a11.474 11.474 0 0 0-17.623 12.49 11.474 11.474 0 0 0 14.02 7.991 11.474 11.474 0 0 0 7.619-15.472 11.474 11.474 0 0 0-4.019-5.005l.003-.004Z"/>
  <path fill="#FFE555" d="M379.967 46.226a6.003 6.003 0 0 0-8 1.002 5.994 5.994 0 0 0-1.226 5.525 6 6 0 0 0 7.341 4.176 6.003 6.003 0 0 0 4.341-4.752 6 6 0 0 0-2.458-5.948l.002-.003Z"/>
  <path fill="#FFAE00" d="M379.966 46.226a5.958 5.958 0 0 0-4.481-.993c-.156.028-.308.066-.458.1l3.1 11.577a6.004 6.004 0 0 0 4.301-4.763 5.997 5.997 0 0 0-2.464-5.926l.002.005Z"/>
  <path fill="#AFAFAE" d="M188.16 89.867a42.867 42.867 0 0 0 8.837 26.3l39.63-6.02 36.962-14.458a42.704 42.704 0 0 0-5.543-27.249l-40.533 7.991-39.353 13.436Z" style="mix-blend-mode:multiply"/>
  <path fill="#003A65" d="M92.298 119.663a11.475 11.475 0 0 0-17.778 6.918 11.471 11.471 0 1 0 22.495 4.471 11.471 11.471 0 0 0-4.72-11.385l.003-.004Z"/>
  <path fill="#FFE555" d="M89.157 124.148a6.002 6.002 0 0 0-8 1.002 5.998 5.998 0 0 0 2.69 9.612 6.011 6.011 0 0 0 3.425.089 6.005 6.005 0 0 0 4.341-4.752 5.997 5.997 0 0 0-2.458-5.948l.002-.003Z"/>
  <path fill="#FFAE00" d="M89.156 124.148a5.96 5.96 0 0 0-4.481-.993c-.157.028-.308.066-.46.1l3.101 11.578a6 6 0 0 0 1.837-10.689l.003.004Z"/>
  <path fill="#003A65" d="M247.483 56.056a37.197 37.197 0 0 0-15.83-3.522 37.51 37.51 0 0 0-33.661 54.096 37.513 37.513 0 0 0 17.788 17.411 37.19 37.19 0 0 0 15.83 3.522 37.512 37.512 0 0 0 15.873-71.507Z"/>
  <path fill="#002246" d="M247.483 56.056a37.197 37.197 0 0 0-15.83-3.522h-.044v75.027a37.512 37.512 0 0 0 15.874-71.507v.002Z"/>
  <path fill="#fff" d="M251.98 110.396c11.238-11.238 11.238-29.458 0-40.696s-29.458-11.238-40.695 0c-11.238 11.238-11.238 29.458 0 40.696 11.237 11.237 29.457 11.237 40.695 0Z"/>
  <path fill="#002246" d="M231.61 116.3c-.336 0-.659-.134-.897-.371a1.273 1.273 0 0 1-.371-.897v-2.6c0-.336.134-.659.371-.897a1.273 1.273 0 0 1 1.794 0c.238.238.371.561.371.897v2.6a1.269 1.269 0 0 1-1.268 1.268Zm0-47.39a1.27 1.27 0 0 1-1.268-1.268v-2.6a1.271 1.271 0 0 1 1.268-1.268 1.27 1.27 0 0 1 1.268 1.268v2.6a1.267 1.267 0 0 1-1.268 1.268Zm-22.396 22.396h-2.6a1.266 1.266 0 0 1-1.268-1.268 1.268 1.268 0 0 1 1.268-1.268h2.6a1.27 1.27 0 0 1 .897 2.165 1.27 1.27 0 0 1-.897.37Zm47.391 0h-2.6a1.266 1.266 0 0 1-1.268-1.268 1.268 1.268 0 0 1 1.268-1.268h2.6a1.27 1.27 0 0 1 .897 2.165 1.27 1.27 0 0 1-.897.37Zm-21.024 5.374a7.698 7.698 0 1 0-7.867-13.233 7.698 7.698 0 0 0 7.867 13.233Z"/>
  <path fill="#002246" d="M231.647 91.71a1.639 1.639 0 0 1-1.163-.479l-12.173-12.12a1.65 1.65 0 0 1 1.791-2.692c.2.082.382.203.535.356l12.173 12.12a1.648 1.648 0 0 1-1.163 2.816Z"/>
  <path fill="#E95900" d="M234.913 86.797a4.619 4.619 0 1 0-6.533 6.532 4.619 4.619 0 0 0 6.533-6.532Z"/>
  <mask id="a" width="59" height="58" x="202" y="61" maskUnits="userSpaceOnUse" style="mask-type:luminance">
    <path fill="#fff" d="M251.991 110.366c11.226-11.227 11.226-29.43 0-40.656-11.227-11.227-29.429-11.227-40.656 0s-11.227 29.43 0 40.656c11.227 11.227 29.429 11.227 40.656 0Z"/>
  </mask>
  <g mask="url(#a)">
    <path fill="#fff" d="M206.936 93.33a28.02 28.02 0 1 1 28.021 28.022 28.052 28.052 0 0 1-28.021-28.021Zm-1.406 0a29.423 29.423 0 0 0 18.165 27.189 29.433 29.433 0 0 0 32.07-6.379 29.425 29.425 0 0 0-4.459-45.276 29.427 29.427 0 0 0-16.349-4.96 29.46 29.46 0 0 0-29.427 29.427Z" style="mix-blend-mode:multiply"/>
    <path fill="#FCFCFC" d="M206.794 93.225a28.052 28.052 0 0 1 17.319-25.919 28.057 28.057 0 0 1 36.656 36.656 28.053 28.053 0 0 1-25.919 17.319 28.084 28.084 0 0 1-19.829-8.227 28.084 28.084 0 0 1-8.227-19.83Zm-1.407 0a29.467 29.467 0 0 0 18.188 27.22 29.462 29.462 0 1 0 11.275-56.683 29.502 29.502 0 0 0-29.463 29.463Z" style="mix-blend-mode:multiply"/>
    <path fill="#F9F9F9" d="M206.653 93.118a28.095 28.095 0 0 1 17.34-25.952 28.091 28.091 0 0 1 26.356 49.308 28.093 28.093 0 0 1-15.606 4.734 28.125 28.125 0 0 1-28.09-28.09Zm-1.409 0a29.495 29.495 0 0 0 18.211 27.254 29.5 29.5 0 1 0 11.289-56.754 29.533 29.533 0 0 0-29.5 29.5Z" style="mix-blend-mode:multiply"/>
    <path fill="#F6F6F6" d="M206.512 93.012a28.129 28.129 0 0 1 17.362-25.984 28.125 28.125 0 1 1 10.763 54.109 28.158 28.158 0 0 1-28.125-28.125Zm-1.411 0a29.538 29.538 0 0 0 35.298 28.968 29.528 29.528 0 0 0 23.206-23.206 29.537 29.537 0 0 0-28.968-35.298 29.569 29.569 0 0 0-29.536 29.536Z" style="mix-blend-mode:multiply"/>
    <path fill="#F3F3F3" d="M206.372 92.906a28.162 28.162 0 0 1 33.654-27.619 28.16 28.16 0 0 1-5.494 55.779 28.19 28.19 0 0 1-28.16-28.16Zm-1.413 0a29.569 29.569 0 0 0 4.984 16.43 29.568 29.568 0 0 0 30.358 12.576 29.575 29.575 0 0 0 10.661-53.594 29.572 29.572 0 0 0-16.43-4.984 29.608 29.608 0 0 0-29.573 29.572Z" style="mix-blend-mode:multiply"/>
    <path fill="#F0F0F0" d="M206.231 92.8a28.194 28.194 0 1 1 28.194 28.195A28.226 28.226 0 0 1 206.231 92.8Zm-1.415 0a29.613 29.613 0 0 0 18.278 27.355 29.612 29.612 0 0 0 32.268-6.418 29.605 29.605 0 0 0 6.418-32.268 29.61 29.61 0 0 0-27.355-18.278A29.644 29.644 0 0 0 204.816 92.8Z" style="mix-blend-mode:multiply"/>
    <path fill="#EDEDED" d="M206.089 92.695a28.232 28.232 0 0 1 48.19-19.961 28.234 28.234 0 0 1 6.12 30.763 28.235 28.235 0 0 1-26.08 17.427 28.264 28.264 0 0 1-28.23-28.23Zm-1.416 0a29.648 29.648 0 0 0 35.43 29.076 29.649 29.649 0 0 0 23.292-23.292 29.644 29.644 0 0 0-29.076-35.43 29.68 29.68 0 0 0-29.648 29.646h.002Z" style="mix-blend-mode:multiply"/>
    <path fill="#EAEAEA" d="M205.948 92.587a28.269 28.269 0 0 1 17.448-26.113 28.262 28.262 0 0 1 38.537 20.599 28.262 28.262 0 0 1-27.721 33.778 28.299 28.299 0 0 1-28.264-28.264Zm-1.418 0a29.684 29.684 0 0 0 35.473 29.112 29.69 29.69 0 0 0 23.321-23.321 29.689 29.689 0 0 0-12.621-30.47 29.685 29.685 0 0 0-16.491-5.003 29.715 29.715 0 0 0-29.682 29.682Z" style="mix-blend-mode:multiply"/>
    <path fill="#E7E7E7" d="M205.807 92.482a28.305 28.305 0 0 1 17.47-26.146 28.299 28.299 0 0 1 36.976 36.976 28.303 28.303 0 0 1-26.146 17.47 28.331 28.331 0 0 1-28.3-28.3Zm-1.419 0a29.716 29.716 0 0 0 18.346 27.457 29.72 29.72 0 1 0 11.373-57.176 29.755 29.755 0 0 0-29.719 29.719Z" style="mix-blend-mode:multiply"/>
    <path fill="#E4E4E4" d="M205.667 92.375a28.337 28.337 0 0 1 17.491-26.177 28.334 28.334 0 1 1 10.843 54.511 28.364 28.364 0 0 1-28.334-28.334Zm-1.422 0a29.751 29.751 0 0 0 18.368 27.49 29.758 29.758 0 0 0 40.57-21.685A29.756 29.756 0 0 0 234 62.62a29.788 29.788 0 0 0-29.755 29.755Z" style="mix-blend-mode:multiply"/>
    <path fill="#E1E1E1" d="M205.525 92.269a28.372 28.372 0 0 1 33.903-27.825 28.373 28.373 0 0 1 22.29 22.29 28.361 28.361 0 0 1-1.615 16.391 28.37 28.37 0 0 1-26.21 17.512 28.403 28.403 0 0 1-28.368-28.368Zm-1.423 0a29.787 29.787 0 0 0 18.391 27.524 29.787 29.787 0 0 0 32.467-6.458 29.791 29.791 0 0 0-21.066-50.858 29.823 29.823 0 0 0-29.792 29.792Z" style="mix-blend-mode:multiply"/>
    <path fill="#DEDEDE" d="M205.384 92.162a28.405 28.405 0 0 1 17.532-26.238 28.398 28.398 0 0 1 38.722 20.697 28.394 28.394 0 0 1-12.076 29.155 28.403 28.403 0 0 1-15.778 4.786 28.438 28.438 0 0 1-28.4-28.4Zm-1.425 0a29.828 29.828 0 1 0 29.828-29.828 29.863 29.863 0 0 0-29.828 29.828Z" style="mix-blend-mode:multiply"/>
    <path fill="#DBDBDB" d="M205.244 92.057a28.437 28.437 0 0 1 48.547-20.109 28.437 28.437 0 0 1-20.109 48.547 28.468 28.468 0 0 1-28.438-28.438Zm-1.427 0a29.869 29.869 0 0 0 18.436 27.592 29.87 29.87 0 0 0 32.547-6.474 29.867 29.867 0 0 0-21.118-50.983 29.897 29.897 0 0 0-29.865 29.865Z" style="mix-blend-mode:multiply"/>
    <path fill="#D8D8D8" d="M205.102 91.947a28.471 28.471 0 0 1 34.028-27.926 28.472 28.472 0 0 1 10.264 51.6 28.474 28.474 0 0 1-15.819 4.799 28.502 28.502 0 0 1-28.473-28.473Zm-1.429 0a29.905 29.905 0 0 0 18.458 27.624 29.896 29.896 0 0 0 32.584-6.482 29.898 29.898 0 0 0-21.142-51.042 29.936 29.936 0 0 0-29.9 29.9Z" style="mix-blend-mode:multiply"/>
    <path fill="#D5D5D5" d="M204.961 91.844a28.512 28.512 0 0 1 17.599-26.338 28.506 28.506 0 0 1 26.747 50.041 28.504 28.504 0 0 1-15.838 4.805 28.541 28.541 0 0 1-28.508-28.508Zm-1.431 0a29.939 29.939 0 1 0 29.938-29.938 29.974 29.974 0 0 0-29.938 29.938Z" style="mix-blend-mode:multiply"/>
    <path fill="#D2D2D2" d="M204.82 91.737a28.535 28.535 0 0 1 4.811-15.857 28.536 28.536 0 0 1 29.299-12.136 28.538 28.538 0 0 1 22.425 22.425 28.537 28.537 0 0 1-12.135 29.3 28.537 28.537 0 0 1-15.857 4.811 28.577 28.577 0 0 1-28.543-28.543Zm-1.432 0a29.976 29.976 0 0 0 35.821 29.398 29.98 29.98 0 0 0 21.846-40.868 29.979 29.979 0 0 0-27.692-18.504 30.008 30.008 0 0 0-29.975 29.974Z" style="mix-blend-mode:multiply"/>
    <path fill="#CFCFCE" d="M204.68 91.631a28.576 28.576 0 1 1 28.577 28.58 28.61 28.61 0 0 1-28.577-28.58Zm-1.434 0a30.007 30.007 0 0 0 18.526 27.727 30.016 30.016 0 0 0 32.706-6.506 30.013 30.013 0 0 0-21.221-51.232 30.044 30.044 0 0 0-30.011 30.011Z" style="mix-blend-mode:multiply"/>
    <path fill="#CCCCCB" d="M204.539 91.525a28.612 28.612 0 1 1 28.612 28.612 28.645 28.645 0 0 1-28.612-28.612Zm-1.436 0a30.048 30.048 0 1 0 30.048-30.047 30.082 30.082 0 0 0-30.048 30.047Z" style="mix-blend-mode:multiply"/>
    <path fill="#C9C8C8" d="M204.397 91.419A28.645 28.645 0 0 1 253.3 71.162a28.648 28.648 0 0 1 6.21 31.22 28.649 28.649 0 0 1-26.466 17.684 28.678 28.678 0 0 1-28.647-28.647Zm-1.437 0a30.084 30.084 0 1 0 30.084-30.084 30.119 30.119 0 0 0-30.084 30.084Z" style="mix-blend-mode:multiply"/>
    <path fill="#C5C5C5" d="M204.251 91.313a28.68 28.68 0 0 1 17.706-26.499 28.683 28.683 0 1 1 10.976 55.181 28.717 28.717 0 0 1-28.682-28.682Zm-1.439 0a30.125 30.125 0 0 0 18.594 27.828 30.12 30.12 0 1 0 11.527-57.95 30.157 30.157 0 0 0-30.116 30.122h-.005Z" style="mix-blend-mode:multiply"/>
    <path fill="#C2C2C2" d="M204.115 91.206a28.71 28.71 0 0 1 17.728-26.53 28.716 28.716 0 1 1 10.988 55.247 28.749 28.749 0 0 1-28.716-28.717Zm-1.441 0a30.16 30.16 0 0 0 18.616 27.861 30.159 30.159 0 0 0 41.119-21.978 30.158 30.158 0 0 0-29.578-36.04 30.192 30.192 0 0 0-30.158 30.157h.001Z" style="mix-blend-mode:multiply"/>
    <path fill="#BFBFBF" d="M203.974 91.101a28.752 28.752 0 0 1 56.95-5.61 28.755 28.755 0 0 1-28.199 34.36 28.784 28.784 0 0 1-28.751-28.75Zm-1.442 0a30.192 30.192 0 0 0 18.639 27.896 30.2 30.2 0 0 0 32.905-6.546 30.187 30.187 0 0 0 6.546-32.905 30.201 30.201 0 0 0-27.896-18.639 30.23 30.23 0 0 0-30.194 30.194Z" style="mix-blend-mode:multiply"/>
    <path fill="#BCBCBC" d="M203.833 90.994a28.786 28.786 0 1 1 28.786 28.786 28.817 28.817 0 0 1-28.786-28.786Zm-1.444 0a30.23 30.23 0 1 0 30.23-30.23 30.263 30.263 0 0 0-30.23 30.23Z" style="mix-blend-mode:multiply"/>
    <path fill="#B9B9B9" d="M203.692 90.888a28.82 28.82 0 1 1 55.448 11.029 28.814 28.814 0 0 1-26.627 17.792 28.856 28.856 0 0 1-28.821-28.821Zm-1.446 0a30.263 30.263 0 0 0 18.684 27.963 30.267 30.267 0 1 0 11.583-58.23 30.298 30.298 0 0 0-30.267 30.267Z" style="mix-blend-mode:multiply"/>
    <path fill="#B6B6B6" d="M203.552 90.784a28.854 28.854 0 0 1 34.485-28.302 28.853 28.853 0 0 1 22.673 22.672 28.861 28.861 0 0 1-12.27 29.623 28.857 28.857 0 0 1-16.032 4.863 28.889 28.889 0 0 1-28.856-28.856Zm-1.448 0a30.297 30.297 0 0 0 18.705 27.993 30.294 30.294 0 0 0 33.02-6.568 30.293 30.293 0 0 0 6.569-33.02 30.303 30.303 0 0 0-27.994-18.705 30.337 30.337 0 0 0-30.3 30.3Z" style="mix-blend-mode:multiply"/>
    <path fill="#B3B3B3" d="M203.411 90.676a28.886 28.886 0 0 1 17.834-26.691 28.89 28.89 0 1 1 11.056 55.581 28.925 28.925 0 0 1-28.89-28.89Zm-1.45 0a30.338 30.338 0 0 0 36.259 29.757 30.345 30.345 0 0 0 15.535-8.303 30.349 30.349 0 0 0 6.577-33.065 30.348 30.348 0 0 0-28.031-18.73 30.375 30.375 0 0 0-30.34 30.34Z" style="mix-blend-mode:multiply"/>
    <path fill="#B0B0B0" d="M203.269 90.569a28.92 28.92 0 0 1 17.856-26.723 28.924 28.924 0 0 1 27.139 50.773 28.92 28.92 0 0 1-16.07 4.875 28.955 28.955 0 0 1-28.925-28.925Zm-1.451 0a30.378 30.378 0 1 0 30.376-30.376 30.413 30.413 0 0 0-30.376 30.376Z" style="mix-blend-mode:multiply"/>
    <path fill="#ADADAD" d="M203.124 90.463a28.962 28.962 0 0 1 49.438-20.478 28.965 28.965 0 0 1 6.278 31.56 28.957 28.957 0 0 1-26.756 17.878 28.994 28.994 0 0 1-28.96-28.96Zm-1.453 0a30.41 30.41 0 0 0 18.775 28.098 30.414 30.414 0 1 0 11.638-58.511 30.45 30.45 0 0 0-30.409 30.413h-.004Z" style="mix-blend-mode:multiply"/>
    <path fill="#AAA" d="M202.987 90.356a28.996 28.996 0 1 1 28.995 28.995 29.029 29.029 0 0 1-28.995-28.995Zm-1.455 0a30.455 30.455 0 0 0 18.797 28.133 30.446 30.446 0 0 0 33.184-6.6 30.449 30.449 0 0 0-21.531-51.982 30.483 30.483 0 0 0-30.45 30.449Z" style="mix-blend-mode:multiply"/>
    <path fill="#A7A7A6" d="M202.847 90.25a29.03 29.03 0 1 1 29.029 29.031 29.064 29.064 0 0 1-29.029-29.03Zm-1.457 0a30.484 30.484 0 0 0 36.434 29.901 30.49 30.49 0 0 0 23.952-23.953 30.475 30.475 0 0 0-1.735-17.614 30.48 30.48 0 0 0-28.165-18.82 30.524 30.524 0 0 0-30.486 30.487Z" style="mix-blend-mode:multiply"/>
    <path fill="#A4A4A3" d="M202.705 90.145a29.06 29.06 0 0 1 17.942-26.852 29.062 29.062 0 0 1 39.628 21.182 29.066 29.066 0 0 1-28.506 34.734 29.101 29.101 0 0 1-29.064-29.064Zm-1.458 0a30.525 30.525 0 0 0 36.478 29.936A30.515 30.515 0 0 0 261.706 96.1a30.523 30.523 0 0 0-29.936-36.478 30.555 30.555 0 0 0-30.523 30.523Z" style="mix-blend-mode:multiply"/>
    <path fill="#A1A1A0" d="M202.564 90.035a29.104 29.104 0 0 1 17.964-26.885 29.098 29.098 0 0 1 38.021 38.021 29.105 29.105 0 0 1-26.885 17.964 29.13 29.13 0 0 1-29.1-29.1Zm-1.46 0a30.56 30.56 0 0 0 36.521 29.972 30.552 30.552 0 0 0 15.646-8.364 30.551 30.551 0 0 0 6.625-33.302 30.561 30.561 0 0 0-28.233-18.865 30.593 30.593 0 0 0-30.559 30.559Z" style="mix-blend-mode:multiply"/>
  </g>
  <path fill="#003A65" d="M340.118 451.849s-2.119 1.943-4.709-6.6c-2.59-8.543-16.721-15.539-31.4-15.539H159.657c-14.682 0-28.814 6.992-31.4 15.539-2.586 8.547-4.709 6.6-4.709 6.6h216.57Z"/>
  <path fill="#002246" d="M231.632 451.849v-22.142h72.374c14.682 0 28.814 6.992 31.4 15.539 2.586 8.547 4.709 6.6 4.709 6.6l-108.483.003Z"/>
  <path fill="#AFAFAE" d="M124.77 451.849h214.12c-.863-.484-2.106-2.064-3.481-6.6a10.816 10.816 0 0 0-.335-.931H128.586c-.125.308-.24.618-.335.931-1.375 4.536-2.619 6.116-3.481 6.6Z" style="mix-blend-mode:multiply"/>
  <path fill="#003A65" d="M340.215 448.786H123.443c-2.936 0-5.339 1.8-5.339 4v2.209h227.451v-2.201c0-2.206-2.402-4.008-5.34-4.008Z"/>
  <path fill="#002246" d="M340.217 448.786H231.83V455h113.726v-2.206c0-2.206-2.403-4.008-5.339-4.008Z"/>
  <path fill="#003A65" d="M240.597 2.62a20.62 20.62 0 0 0-8.775-1.952 20.792 20.792 0 0 0-18.662 29.987 20.795 20.795 0 0 0 9.862 9.652 20.617 20.617 0 0 0 8.775 1.952 20.793 20.793 0 0 0 8.8-39.638V2.62Z"/>
  <path fill="#002246" d="M240.597 2.62a20.62 20.62 0 0 0-8.775-1.952h-.025v41.59a20.793 20.793 0 0 0 8.8-39.638Z"/>
  <path fill="#002246" d="M242.825 12.249a14.335 14.335 0 0 0-12.548-5.043 14.338 14.338 0 0 0-12.782 14.413 14.342 14.342 0 1 0 25.329-9.375l.001.005Z"/>
  <path fill="#FFE555" d="M240.57 14.139a11.403 11.403 0 0 0-15.173-2.089 11.402 11.402 0 0 0 5.45 20.768 11.397 11.397 0 0 0 11.317-6.543 11.401 11.401 0 0 0-1.596-12.136h.002Z"/>
  <path fill="#FFAE00" d="M240.57 14.139a11.321 11.321 0 0 0-7.736-4.028c-.3-.026-.6-.03-.893-.033v22.779a11.397 11.397 0 0 0 10.249-6.623 11.388 11.388 0 0 0-1.62-12.095Z"/>
</svg>
