<svg xmlns="http://www.w3.org/2000/svg" width="487.292" height="467.088" viewBox="0 0 487.292 467.088"><g transform="translate(-343 -201)"><g transform="translate(343 201)"><g transform="translate(376.982 96.433)"><path d="M423.581,96.79a11.1,11.1,0,0,1,6.266,6.616,12.376,12.376,0,0,1,.675,4.731,12.68,12.68,0,0,1-1.41,4.895c-.014.025-.478.927-1.333,2.593-.894,1.655-2.315,4.034-4.087,7.052a101.707,101.707,0,0,1-16.538,19.975,74.641,74.641,0,0,1-14.822,10.378,59.83,59.83,0,0,1-18.029,6.088,56.49,56.49,0,0,1-17.626.139,48.525,48.525,0,0,1-13.731-4.131c-7.4-3.573-10.933-7.912-9.673-10.169,1.238-2.285,5.977-2,12.774-1.885,6.766.164,15.564-.2,23.784-3.021a49.49,49.49,0,0,0,11.7-5.758,64.249,64.249,0,0,0,9.814-8.2,98.59,98.59,0,0,0,12.082-15.977c1.424-2.507,2.59-4.45,3.332-5.833.713-1.41,1.1-2.174,1.113-2.193a10.958,10.958,0,0,1,2.757-3.4,11.507,11.507,0,0,1,3.773-2.179,12.784,12.784,0,0,1,9.123.25l.025.011Z" transform="translate(-333.022 -54.386)" fill="#2d2d2d"/><g transform="translate(71.397)"><ellipse cx="16.196" cy="16.196" rx="16.196" ry="16.196" transform="translate(2.24 26.31)" fill="#2d2d2d"/><path d="M347.047,101.192a3.038,3.038,0,0,1-.317-.15c-.1-.058-.025-.039-.047-.061a.2.2,0,0,0-.3-.1.313.313,0,0,0-.089.083l-.036.056-.042.386a6.68,6.68,0,0,0,.275,2.093c.053.23.13.472.214.719a6.1,6.1,0,0,1-2.551,6.888,5.044,5.044,0,0,1-4.187.555,5.6,5.6,0,0,1-3.465-3.376c-.186-.43-.369-.869-.533-1.338a18.137,18.137,0,0,1-1.069-5.383c0-.511-.011-.949.025-1.521a13.853,13.853,0,0,1,.244-1.824,13.56,13.56,0,0,1,1.1-3.468,9.928,9.928,0,0,1,4.917-4.994,11.671,11.671,0,0,1,3.467-.924,15,15,0,0,1,3.69.155c.589.111,1.274.253,1.768.4s.994.305,1.463.472a6.656,6.656,0,0,1,4.034,4.3,4.727,4.727,0,0,1-1.172,4.611,9.37,9.37,0,0,1-3.937,2.332A5.371,5.371,0,0,1,347.047,101.192Z" transform="translate(-334.904 -66.862)" fill="#2d2d2d"/><path d="M350.434,88.266l-1.346,5.125q-.862,3.219-1.813,6.4c-.627,2.124-1.3,4.231-1.977,6.335l-1.049,3.148-.508,1.469-.336.913a5.44,5.44,0,0,1-6.993,3.493,5.578,5.578,0,0,1-3.448-6.9l1.524-5.378c.558-2.041,1.1-4.087,1.6-6.141s.988-4.106,1.438-6.166l.652-3.09.33-1.824a6.207,6.207,0,0,1,7.179-4.672A6.045,6.045,0,0,1,350.434,88.266Z" transform="translate(-323.573 -80.881)" fill="#2d2d2d"/><path d="M343.407,97.487l-.949,1.63-.591.069-.552.947a5.491,5.491,0,1,1-9.7-5.15l.472-.986-.272-.528.813-1.7a6.1,6.1,0,0,1,10.78,5.719Z" transform="translate(-312.321 -67.295)" fill="#2d2d2d"/><path d="M341.865,101.641l-1.282,1.385-1.766,1.31-.744.8A5.492,5.492,0,1,1,329.722,98l.677-.858,1.022-1.949,1.166-1.483a6.1,6.1,0,0,1,9.278,7.926Z" transform="translate(-304.407 -61.871)" fill="#2d2d2d"/></g></g><g transform="translate(66.828)"><g transform="translate(0)"><g transform="translate(41.994)"><path d="M426.085,46.146c11.527,9.259,23.054,18.073,34.781,26.3,11.708,8.218,23.612,15.852,35.911,22.768a326.687,326.687,0,0,0,38.149,18.415,294.266,294.266,0,0,0,41.424,13.257L388.7,130.969l37.382-84.823Z" transform="translate(-365.26 -46.146)" fill="#6a9317"/><path d="M429.576,49.873c.872.7,9.617,7.488,10.494,8.151q15.083,11.369,30.591,21a352.583,352.583,0,0,0,31.7,17.482,331.022,331.022,0,0,0,33.249,13.948,337.458,337.458,0,0,0,35.206,10.416l-19.864.43-115.148,2.5-24.97.541-12.171.267,30.908-74.742Z" transform="translate(-387.396 -39.526)" fill="#50750d"/><path d="M410.587,117.685l21.219-63.773q1.6,1.1,3.19,2.179t3.2,2.149q1.6,1.066,3.2,2.118t3.207,2.088q13.767,8.878,27.84,16.613,14.067,7.712,28.545,14.242,14.463,6.513,29.434,11.807,14.954,5.276,30.5,9.309l-14.637.316-28.107.611h0l-38.82.847-35.486.769-13.856.3-.808.017h0l-7.349.161Z" transform="translate(-410.587 -32.352)" fill="#6a9317"/><path d="M463.154,68.172q5.838,3.182,12.077,6.136,6.218,2.953,12.76,5.68,6.526,2.728,13.293,5.233c4.5,1.671,9.065,3.268,13.67,4.795l-88.971,1.935q.662-1.72,1.324-3.445t1.324-3.445q.662-1.72,1.319-3.44t1.308-3.431a21.1,21.1,0,0,0,6.821,3.9,21.509,21.509,0,0,0,7.385,1.158,20.634,20.634,0,0,0,6.3-1.111,18.2,18.2,0,0,0,5.447-2.971,15.907,15.907,0,0,0,3.992-4.7,16.234,16.234,0,0,0,1.946-6.294Z" transform="translate(-407.363 -7.022)" fill="#95c63f"/></g><g transform="translate(0 79.749)" style="isolation:isolate"><path d="M381.358,153.875a7.022,7.022,0,0,1-1.5.639,7.175,7.175,0,0,1-.819.194,7.341,7.341,0,0,1-.863.1L358.7,165.941a7.674,7.674,0,0,0,.852-.105,7.09,7.09,0,0,0,.813-.192,6.977,6.977,0,0,0,.766-.278,6.716,6.716,0,0,0,.722-.358q9.753-5.568,19.506-11.133Z" transform="translate(-44.973 65.459)" fill="#af602d"/><g transform="translate(0 12.825)"><path d="M475.462,105.185a32.61,32.61,0,0,1-.269-7.532,29.4,29.4,0,0,1,1.408-6.93,27.649,27.649,0,0,1,2.912-6.122,26.557,26.557,0,0,1,4.245-5.111l-3.9,3.651a26.39,26.39,0,0,0-4.234,5.094,27.569,27.569,0,0,0-2.91,6.1,29.566,29.566,0,0,0-1.408,6.91,32.545,32.545,0,0,0,.267,7.507l3.892-3.573Z" transform="translate(-459.698 -79.491)" fill="#af602d"/><path d="M479.554,108.869a32.243,32.243,0,0,1-.255-7.457,29.322,29.322,0,0,1,1.4-6.866,27.563,27.563,0,0,1,2.9-6.069,26.618,26.618,0,0,1,4.214-5.069L484,86.978a26.464,26.464,0,0,0-4.2,5.056,27.3,27.3,0,0,0-2.89,6.052,29.131,29.131,0,0,0-1.408,6.843,32.207,32.207,0,0,0,.253,7.435l3.806-3.5Z" transform="translate(-475.387 -72.533)" fill="#af602d"/><path d="M478.117,106.422a32.547,32.547,0,0,1-.267-7.507,29.562,29.562,0,0,1,1.408-6.91,27.566,27.566,0,0,1,2.91-6.1,26.389,26.389,0,0,1,4.234-5.094l-5.164,4.825a26.594,26.594,0,0,0-4.22,5.078,27.56,27.56,0,0,0-2.9,6.083,29.3,29.3,0,0,0-1.4,6.88,32.244,32.244,0,0,0,.258,7.474l5.147-4.722Z" transform="translate(-466.246 -77.155)" fill="#9e5419"/><path d="M477.384,108.058a32.25,32.25,0,0,1-.258-7.474,29.286,29.286,0,0,1,1.4-6.88,27.559,27.559,0,0,1,2.9-6.083,26.6,26.6,0,0,1,4.22-5.078l-2.565,2.4a26.622,26.622,0,0,0-4.214,5.069,27.565,27.565,0,0,0-2.9,6.069,29.319,29.319,0,0,0-1.4,6.866,32.239,32.239,0,0,0,.255,7.457l2.557-2.346Z" transform="translate(-470.66 -74.068)" fill="#c86c34"/></g><g transform="translate(0.359 38.511)"><path d="M478.855,92.581l9.2,61.811-3.866,3.288-9.147-61.618Z" transform="translate(-475.046 -81.926)" fill="#af602d"/><path d="M484.475,151.192l-3.953,3.363L471.2,92.328l-.391.359,0-.012,4.283-3.931Z" transform="translate(-459.685 -88.743)" fill="#af602d"/><path d="M481.472,156.707l-9.244-61.949L474.14,93l.514-.472,1.814-1.665.516-.474.391-.359,9.324,62.226-5.227,4.446Z" transform="translate(-465.863 -86.449)" fill="#9e5419"/><path d="M483.315,155.893l-9.2-61.811,2.557-2.347,9.244,61.949-2.6,2.209Z" transform="translate(-470.302 -83.427)" fill="#c86c34"/></g><g transform="translate(1.171 101.28)"><path d="M489.15,111.352l.65,4.349-15.557,13.262-.633-4.291Z" transform="translate(-473.61 -111.352)" fill="#d78857"/><path d="M478.224,175.8,470.9,126.181l15.557-13.262,7.515,50.295L478.224,175.8Z" transform="translate(-470.27 -108.57)" fill="#c86c34"/><path d="M471.305,147.944l-.638-4.327,15.75-12.582.656,4.387-15.767,12.523Z" transform="translate(-462.712 -76.391)" fill="#9e5419"/></g><path d="M475.987,144.977l-8.373.428,15.767-12.523,8.476-.416-15.871,12.511Z" transform="translate(-457.852 27.431)" fill="#9e5419"/><g transform="translate(61.253 220.27)"><path d="M376.412,170.267l-16.567,11.4,252.471-16.33,19.477-11.129Z" transform="translate(-359.845 -154.212)" fill="#9e5419"/><path d="M603.842,160.335,364.968,175.679l2.749-1.893,239.332-15.3c1.044-.067,2.132-.178,3.226-.328s2.2-.336,3.268-.55,2.11-.458,3.082-.719,1.907-.569,2.707-.861a1.661,1.661,0,0,1-.158.208,2.19,2.19,0,0,1-.18.189c-.069.064-.15.128-.242.2s-.192.133-.3.205h0l0,0h0l0,0-.022.014-.019.011-.022.014-.022.014-.025.014-.028.017-.028.017-.028.017a15.758,15.758,0,0,1-2.638,1.13c-1.063.361-2.282.705-3.584,1.011s-2.685.575-4.073.788-2.782.372-4.106.458Z" transform="translate(-361.606 -150.99)" fill="#c86c34"/></g><g transform="translate(18.138 159.901)"><path d="M475.935,177.289,471.88,180.3l-6.693-44.667,4.012-3.162Z" transform="translate(-453.327 -132.467)" fill="#af602d"/><path d="M473.46,135.86l6.605,44.361-3.965,2.94-6.562-44.21Z" transform="translate(-469.538 -126.441)" fill="#af602d"/><path d="M466.647,139.864l4.6-3.629.529-.417,1.869-1.473.532-.419.4-.318,6.693,44.667-5.362,3.976-6.634-44.463-2.634,2.077Z" transform="translate(-462.726 -130.445)" fill="#9e5419"/><path d="M475.184,181.55l-6.606-44.361,2.634-2.077,6.634,44.463-2.663,1.975Z" transform="translate(-464.657 -127.77)" fill="#c86c34"/></g><g transform="translate(15.388)"><path d="M384.279,80.456a28.349,28.349,0,0,0-11.813,2.787,26.291,26.291,0,0,0-8.959,7.11,27.489,27.489,0,0,0-5.225,10.4,31.366,31.366,0,0,0-.6,12.64l24.981,166.2a37.381,37.381,0,0,0,4.489,12.91,38.531,38.531,0,0,0,8.49,10.267,36.294,36.294,0,0,0,11.272,6.571,32.045,32.045,0,0,0,12.826,1.86l255.379-16.055A7.205,7.205,0,0,0,680.691,292a8.313,8.313,0,0,0,1.294-3.109,9.976,9.976,0,0,0,.005-3.712L645.408,83.7a10.771,10.771,0,0,0-1.3-3.493,11.3,11.3,0,0,0-2.329-2.823,10.528,10.528,0,0,0-3.034-1.874,8.757,8.757,0,0,0-3.418-.636Z" transform="translate(-357.309 -74.871)" fill="#c86c34"/><g transform="translate(19.255 14.941)"><path d="M372.832,80.381l5.039-.128a1.358,1.358,0,0,1,.514.094,1.583,1.583,0,0,1,.45.28,1.647,1.647,0,0,1,.347.422,1.623,1.623,0,0,1,.192.519,1.372,1.372,0,0,1,0,.533,1.115,1.115,0,0,1-.189.439,1.01,1.01,0,0,1-.347.3,1.09,1.09,0,0,1-.475.119l-5.039.128a1.358,1.358,0,0,1-.514-.094,1.539,1.539,0,0,1-.453-.28,1.7,1.7,0,0,1-.541-.955,1.328,1.328,0,0,1,.006-.525,1.1,1.1,0,0,1,.192-.436,1.012,1.012,0,0,1,.347-.3,1.062,1.062,0,0,1,.475-.117Z" transform="translate(-114.003 -80.253)" fill="#f5f5f5"/><path d="M368.127,148.565l10.408-.616a1.234,1.234,0,0,1,.519.081,1.547,1.547,0,0,1,.461.278,1.794,1.794,0,0,1,.358.43,1.643,1.643,0,0,1,.2.541,1.449,1.449,0,0,1,0,.558,1.259,1.259,0,0,1-.194.464,1.1,1.1,0,0,1-.836.464l-10.411.622a1.272,1.272,0,0,1-.519-.078,1.475,1.475,0,0,1-.464-.278,1.585,1.585,0,0,1-.358-.43,1.613,1.613,0,0,1-.2-.547,1.414,1.414,0,0,1,.006-.552,1.225,1.225,0,0,1,.2-.466,1.082,1.082,0,0,1,.838-.469Z" transform="translate(-101.574 39.987)" fill="#f5f5f5"/><path d="M377.529,149.131l10.511-.625a1.286,1.286,0,0,1,.522.08,1.582,1.582,0,0,1,.466.28,1.75,1.75,0,0,1,.358.433,1.71,1.71,0,0,1,.2.541,1.514,1.514,0,0,1-.005.561,1.238,1.238,0,0,1-.2.466,1.038,1.038,0,0,1-.361.325,1.114,1.114,0,0,1-.483.142l-10.511.63a1.3,1.3,0,0,1-.525-.081,1.453,1.453,0,0,1-.466-.278,1.66,1.66,0,0,1-.361-.433,1.737,1.737,0,0,1-.2-.55,1.486,1.486,0,0,1,.008-.555,1.239,1.239,0,0,1,.2-.466,1.1,1.1,0,0,1,.847-.472Z" transform="translate(-137.156 40.978)" fill="#f5f5f5"/><path d="M387.03,149.7l10.608-.63a1.313,1.313,0,0,1,.527.081,1.62,1.62,0,0,1,.469.28,1.714,1.714,0,0,1,.361.436,1.675,1.675,0,0,1,.2.547,1.463,1.463,0,0,1-.006.561,1.234,1.234,0,0,1-.2.469,1.111,1.111,0,0,1-.364.328,1.151,1.151,0,0,1-.491.142l-10.611.636a1.28,1.28,0,0,1-.53-.081,1.5,1.5,0,0,1-.469-.278,1.717,1.717,0,0,1-.361-.436,1.627,1.627,0,0,1-.2-.552,1.5,1.5,0,0,1,.008-.558,1.281,1.281,0,0,1,.205-.469,1.109,1.109,0,0,1,.367-.333,1.139,1.139,0,0,1,.491-.142Z" transform="translate(-173.095 41.98)" fill="#f5f5f5"/><path d="M396.616,150.275l10.7-.636a1.319,1.319,0,0,1,.539.083,1.547,1.547,0,0,1,.478.28,1.73,1.73,0,0,1,.364.436,1.713,1.713,0,0,1,.2.55,1.43,1.43,0,0,1-.008.566,1.24,1.24,0,0,1-.208.469,1.146,1.146,0,0,1-.372.33,1.189,1.189,0,0,1-.5.142l-10.7.641a1.366,1.366,0,0,1-.539-.078,1.541,1.541,0,0,1-.472-.28,1.63,1.63,0,0,1-.361-.439,1.7,1.7,0,0,1-.2-.555,1.459,1.459,0,0,1,.008-.561,1.3,1.3,0,0,1,.205-.472,1.133,1.133,0,0,1,.872-.478Z" transform="translate(-209.366 42.991)" fill="#f5f5f5"/><path d="M406.3,150.856l10.816-.641a1.353,1.353,0,0,1,.536.081,1.611,1.611,0,0,1,.478.283,1.76,1.76,0,0,1,.364.441,1.691,1.691,0,0,1,.2.55,1.5,1.5,0,0,1-.011.569,1.257,1.257,0,0,1-.211.472,1.127,1.127,0,0,1-.372.333,1.187,1.187,0,0,1-.5.142l-10.819.65a1.368,1.368,0,0,1-.539-.081,1.566,1.566,0,0,1-.477-.28,1.658,1.658,0,0,1-.564-1,1.473,1.473,0,0,1,.011-.564,1.3,1.3,0,0,1,.214-.475A1.172,1.172,0,0,1,405.8,151a1.191,1.191,0,0,1,.5-.144Z" transform="translate(-246.005 44.012)" fill="#f5f5f5"/><path d="M416.076,151.444l10.911-.65a1.361,1.361,0,0,1,.547.083,1.574,1.574,0,0,1,.477.283,1.742,1.742,0,0,1,.364.441,1.72,1.72,0,0,1,.2.555,1.515,1.515,0,0,1-.011.572,1.25,1.25,0,0,1-.211.475,1.219,1.219,0,0,1-.38.333,1.177,1.177,0,0,1-.508.144l-10.913.652a1.319,1.319,0,0,1-.55-.081,1.559,1.559,0,0,1-.48-.28,1.769,1.769,0,0,1-.364-.444,1.738,1.738,0,0,1-.2-.558,1.56,1.56,0,0,1,.014-.569,1.288,1.288,0,0,1,.214-.478,1.135,1.135,0,0,1,.38-.336,1.188,1.188,0,0,1,.511-.144Z" transform="translate(-282.989 45.042)" fill="#f5f5f5"/><path d="M425.947,152.036l11.027-.655a1.366,1.366,0,0,1,.55.083,1.589,1.589,0,0,1,.483.286,1.72,1.72,0,0,1,.366.444,1.657,1.657,0,0,1,.2.555,1.522,1.522,0,0,1-.017.575,1.277,1.277,0,0,1-.219.478,1.181,1.181,0,0,1-.891.48l-11.033.661a1.365,1.365,0,0,1-.55-.081,1.6,1.6,0,0,1-.483-.283,1.677,1.677,0,0,1-.369-.444,1.709,1.709,0,0,1-.2-.564,1.454,1.454,0,0,1,.019-.572,1.3,1.3,0,0,1,.219-.478,1.184,1.184,0,0,1,.9-.486Z" transform="translate(-320.344 46.083)" fill="#f5f5f5"/><path d="M435.916,152.633l11.138-.661a1.407,1.407,0,0,1,.558.083,1.568,1.568,0,0,1,.486.286,1.73,1.73,0,0,1,.367.447,1.671,1.671,0,0,1,.2.558,1.534,1.534,0,0,1-.017.577,1.286,1.286,0,0,1-.219.48,1.191,1.191,0,0,1-.386.339,1.249,1.249,0,0,1-.522.144l-11.141.669a1.378,1.378,0,0,1-.552-.083,1.572,1.572,0,0,1-.489-.283,1.648,1.648,0,0,1-.369-.447,1.59,1.59,0,0,1-.2-.566,1.474,1.474,0,0,1,.019-.575,1.275,1.275,0,0,1,.225-.48,1.208,1.208,0,0,1,.389-.341,1.226,1.226,0,0,1,.516-.147Z" transform="translate(-358.07 47.135)" fill="#f5f5f5"/><path d="M445.969,153.211l.022,0h.069l.305-.008.308-.011c.1,0,.208-.006.311-.011l.311-.017,9.942-.591a1.406,1.406,0,0,1,.558.083,1.611,1.611,0,0,1,.489.289,1.713,1.713,0,0,1,.372.45,1.629,1.629,0,0,1,.2.561,1.444,1.444,0,0,1-.019.58,1.269,1.269,0,0,1-.225.483,1.187,1.187,0,0,1-.394.339,1.239,1.239,0,0,1-.522.147l-9.942.6-.35.017c-.117.006-.233.011-.347.014l-.347.008c-.117,0-.23,0-.344,0a1.41,1.41,0,0,1-.558-.111,1.536,1.536,0,0,1-.477-.311,1.642,1.642,0,0,1-.35-.464,1.593,1.593,0,0,1-.172-.569,1.426,1.426,0,0,1,.044-.558,1.291,1.291,0,0,1,.233-.461,1.207,1.207,0,0,1,.886-.455Z" transform="translate(-396.16 48.195)" fill="#f5f5f5"/><path d="M455.9,147.17a1.363,1.363,0,0,1,.436.044,1.622,1.622,0,0,1,.772.472,1.684,1.684,0,0,1,.269.4,26.157,26.157,0,0,0,1.424,2.546A27.245,27.245,0,0,0,460.48,153a27.429,27.429,0,0,0,4.009,4.1,1.7,1.7,0,0,1,.4.464,1.6,1.6,0,0,1,.2.547,1.449,1.449,0,0,1-.008.558,1.292,1.292,0,0,1-.228.508,1.271,1.271,0,0,1-.192.211,1.14,1.14,0,0,1-.228.155,1.172,1.172,0,0,1-.253.1,1.293,1.293,0,0,1-.272.044,1.4,1.4,0,0,1-.264-.008,1.435,1.435,0,0,1-.266-.064,1.332,1.332,0,0,1-.258-.114,1.425,1.425,0,0,1-.244-.169,30.135,30.135,0,0,1-2.368-2.174,30.523,30.523,0,0,1-4.026-5.081,30.651,30.651,0,0,1-1.6-2.865,1.687,1.687,0,0,1-.161-.58,1.472,1.472,0,0,1,.056-.555,1.288,1.288,0,0,1,.255-.469,1.206,1.206,0,0,1,.436-.322.765.765,0,0,1,.111-.042c.036-.014.072-.022.108-.033s.075-.014.114-.019a.793.793,0,0,1,.114-.011Z" transform="translate(-429.902 38.605)" fill="#f5f5f5"/><path d="M460.063,136.6a1.366,1.366,0,0,1,.561.086,1.592,1.592,0,0,1,.494.291,1.7,1.7,0,0,1,.372.447,1.651,1.651,0,0,1,.2.561l1.8,11.81a1.471,1.471,0,0,1-.022.575,1.33,1.33,0,0,1-.231.48,1.206,1.206,0,0,1-.4.339,1.221,1.221,0,0,1-.525.144,1.455,1.455,0,0,1-.569-.083,1.712,1.712,0,0,1-.5-.292,1.669,1.669,0,0,1-.372-.45,1.649,1.649,0,0,1-.2-.561l-1.8-11.816a1.47,1.47,0,0,1,.025-.575,1.352,1.352,0,0,1,.231-.48,1.242,1.242,0,0,1,.4-.336,1.257,1.257,0,0,1,.533-.142Z" transform="translate(-439.821 19.834)" fill="#f5f5f5"/><path d="M464.881,105.042a1.466,1.466,0,0,1,.558.094,1.574,1.574,0,0,1,.489.294,1.68,1.68,0,0,1,.369.444,1.6,1.6,0,0,1,.194.552l1.766,11.594a1.4,1.4,0,0,1-.022.561,1.324,1.324,0,0,1-.23.469,1.224,1.224,0,0,1-.4.325,1.2,1.2,0,0,1-.522.133,1.454,1.454,0,0,1-.566-.092,1.635,1.635,0,0,1-.491-.292,1.7,1.7,0,0,1-.372-.447,1.6,1.6,0,0,1-.194-.552l-1.766-11.6a1.4,1.4,0,0,1,.025-.561,1.252,1.252,0,0,1,.233-.466,1.223,1.223,0,0,1,.4-.325,1.323,1.323,0,0,1,.53-.133Z" transform="translate(-457.985 -36.222)" fill="#f5f5f5"/><path d="M466.466,94.655a1.4,1.4,0,0,1,.555.1,1.654,1.654,0,0,1,.489.291,1.72,1.72,0,0,1,.367.444,1.567,1.567,0,0,1,.194.55l1.757,11.521a1.435,1.435,0,0,1-.025.558,1.252,1.252,0,0,1-.23.464,1.171,1.171,0,0,1-.394.322,1.238,1.238,0,0,1-.522.13,1.486,1.486,0,0,1-.564-.094,1.648,1.648,0,0,1-.494-.292,1.782,1.782,0,0,1-.369-.444,1.592,1.592,0,0,1-.192-.552l-1.755-11.527a1.365,1.365,0,0,1,.025-.555,1.194,1.194,0,0,1,.23-.464,1.173,1.173,0,0,1,.4-.319,1.277,1.277,0,0,1,.53-.131Z" transform="translate(-463.962 -54.672)" fill="#f5f5f5"/><path d="M470.446,85a1.561,1.561,0,0,1,.278.022,1.267,1.267,0,0,1,.275.075,1.677,1.677,0,0,1,.267.128,1.556,1.556,0,0,1,.247.186,1.669,1.669,0,0,1,.369.464,1.589,1.589,0,0,1,.172.536,1.37,1.37,0,0,1-.031.533,1.184,1.184,0,0,1-.241.469,18.732,18.732,0,0,0-1.474,2.007,19.278,19.278,0,0,0-1.213,2.207,20.15,20.15,0,0,0-.927,2.382,20.581,20.581,0,0,0-.63,2.54,1.2,1.2,0,0,1-.15.405,1.181,1.181,0,0,1-.261.311,1.206,1.206,0,0,1-.353.2,1.334,1.334,0,0,1-.411.081c-.039,0-.075,0-.114,0s-.078-.006-.117-.011a.861.861,0,0,1-.117-.022.9.9,0,0,1-.117-.031,1.515,1.515,0,0,1-.516-.275,1.65,1.65,0,0,1-.383-.428,1.62,1.62,0,0,1-.217-.527,1.469,1.469,0,0,1-.011-.561,22.979,22.979,0,0,1,.708-2.857,22.432,22.432,0,0,1,1.047-2.679,21.187,21.187,0,0,1,1.366-2.479,20.754,20.754,0,0,1,1.66-2.254,1.124,1.124,0,0,1,.186-.178,1.021,1.021,0,0,1,.217-.13,1.051,1.051,0,0,1,.239-.081,1.284,1.284,0,0,1,.253-.033Z" transform="translate(-464.749 -71.826)" fill="#f5f5f5"/><path d="M380.175,80.693l10.267-.255a1.246,1.246,0,0,1,.511.094,1.552,1.552,0,0,1,.455.28,1.649,1.649,0,0,1,.35.422,1.58,1.58,0,0,1,.194.522,1.388,1.388,0,0,1-.006.536,1.155,1.155,0,0,1-.194.441,1.013,1.013,0,0,1-.35.3,1.037,1.037,0,0,1-.475.119l-10.267.264a1.358,1.358,0,0,1-.514-.094,1.677,1.677,0,0,1-.458-.283,1.8,1.8,0,0,1-.35-.428,1.627,1.627,0,0,1-.194-.53,1.358,1.358,0,0,1,.006-.53,1.117,1.117,0,0,1,.2-.436,1.028,1.028,0,0,1,.353-.3,1.112,1.112,0,0,1,.475-.119Z" transform="translate(-146.934 -79.926)" fill="#f5f5f5"/><path d="M389.457,80.926l10.35-.258a1.376,1.376,0,0,1,.519.094,1.537,1.537,0,0,1,.458.283,1.645,1.645,0,0,1,.541.949,1.388,1.388,0,0,1-.006.536,1.189,1.189,0,0,1-.194.444,1.01,1.01,0,0,1-.355.3,1.1,1.1,0,0,1-.483.122l-10.353.264a1.391,1.391,0,0,1-.522-.094,1.6,1.6,0,0,1-.461-.286,1.746,1.746,0,0,1-.35-.428,1.694,1.694,0,0,1-.194-.536,1.409,1.409,0,0,1,.008-.53,1.172,1.172,0,0,1,.2-.439,1.02,1.02,0,0,1,.358-.3,1.1,1.1,0,0,1,.486-.122Z" transform="translate(-182.03 -79.516)" fill="#f5f5f5"/><path d="M398.817,81.163l10.461-.261A1.285,1.285,0,0,1,409.8,81a1.649,1.649,0,0,1,.461.283,1.688,1.688,0,0,1,.353.428,1.585,1.585,0,0,1,.194.527,1.4,1.4,0,0,1-.008.539,1.136,1.136,0,0,1-.2.447,1.05,1.05,0,0,1-.358.3,1.111,1.111,0,0,1-.483.122l-10.464.267a1.349,1.349,0,0,1-.522-.094,1.651,1.651,0,0,1-.464-.286,1.725,1.725,0,0,1-.353-.433,1.549,1.549,0,0,1-.194-.536,1.319,1.319,0,0,1,.011-.533,1.126,1.126,0,0,1,.2-.441,1.093,1.093,0,0,1,.361-.305,1.121,1.121,0,0,1,.486-.119Z" transform="translate(-217.462 -79.1)" fill="#f5f5f5"/><path d="M408.286,81.4l10.547-.264a1.337,1.337,0,0,1,.53.094,1.609,1.609,0,0,1,.464.286,1.64,1.64,0,0,1,.544.958,1.411,1.411,0,0,1-.011.541,1.116,1.116,0,0,1-.2.447,1,1,0,0,1-.364.308,1.127,1.127,0,0,1-.491.122l-10.55.269a1.4,1.4,0,0,1-.533-.1,1.6,1.6,0,0,1-.469-.286,1.683,1.683,0,0,1-.358-.433,1.589,1.589,0,0,1-.195-.539,1.333,1.333,0,0,1,.011-.536,1.136,1.136,0,0,1,.211-.444,1.078,1.078,0,0,1,.369-.308,1.161,1.161,0,0,1,.5-.119Z" transform="translate(-253.235 -78.681)" fill="#f5f5f5"/><path d="M417.813,81.643l10.661-.267a1.375,1.375,0,0,1,.528.094,1.638,1.638,0,0,1,.469.286,1.731,1.731,0,0,1,.355.433,1.54,1.54,0,0,1,.194.53,1.38,1.38,0,0,1-.014.547,1.174,1.174,0,0,1-.208.45,1.077,1.077,0,0,1-.369.308,1.178,1.178,0,0,1-.491.122l-10.661.269a1.343,1.343,0,0,1-.533-.094,1.61,1.61,0,0,1-.469-.289,1.651,1.651,0,0,1-.358-.436,1.58,1.58,0,0,1-.194-.541,1.344,1.344,0,0,1,.014-.539,1.253,1.253,0,0,1,.211-.447,1.073,1.073,0,0,1,.372-.305,1.12,1.12,0,0,1,.494-.122Z" transform="translate(-289.331 -78.258)" fill="#f5f5f5"/><path d="M427.449,81.885l10.761-.269a1.419,1.419,0,0,1,.536.1,1.649,1.649,0,0,1,.472.286,1.872,1.872,0,0,1,.358.436,1.576,1.576,0,0,1,.192.533,1.383,1.383,0,0,1-.014.547,1.218,1.218,0,0,1-.214.453,1.089,1.089,0,0,1-.372.311,1.172,1.172,0,0,1-.5.122l-10.766.275a1.421,1.421,0,0,1-.536-.1,1.661,1.661,0,0,1-.472-.289,1.721,1.721,0,0,1-.361-.439,1.617,1.617,0,0,1-.194-.544,1.409,1.409,0,0,1,.017-.541,1.155,1.155,0,0,1,.217-.447,1.1,1.1,0,0,1,.375-.311,1.174,1.174,0,0,1,.5-.122Z" transform="translate(-325.788 -77.832)" fill="#f5f5f5"/><path d="M437.174,82.131l10.852-.272a1.4,1.4,0,0,1,.544.1,1.6,1.6,0,0,1,.48.289,1.663,1.663,0,0,1,.361.436,1.573,1.573,0,0,1,.194.536,1.393,1.393,0,0,1-.02.55,1.134,1.134,0,0,1-.216.455,1.118,1.118,0,0,1-.38.311,1.194,1.194,0,0,1-.511.122l-10.855.278a1.4,1.4,0,0,1-.547-.1,1.69,1.69,0,0,1-.478-.289,1.728,1.728,0,0,1-.358-.441,1.606,1.606,0,0,1-.192-.547,1.422,1.422,0,0,1,.017-.544,1.188,1.188,0,0,1,.217-.45,1.092,1.092,0,0,1,.38-.311,1.175,1.175,0,0,1,.511-.122Z" transform="translate(-362.58 -77.401)" fill="#f5f5f5"/><path d="M447,82.379l10.969-.275a1.407,1.407,0,0,1,.544.1,1.709,1.709,0,0,1,.839.727,1.546,1.546,0,0,1,.194.541,1.412,1.412,0,0,1-.019.552,1.2,1.2,0,0,1-.219.455,1.136,1.136,0,0,1-.383.314,1.171,1.171,0,0,1-.508.122l-10.972.28a1.412,1.412,0,0,1-.547-.1,1.613,1.613,0,0,1-.48-.292,1.741,1.741,0,0,1-.364-.441,1.643,1.643,0,0,1-.194-.55,1.377,1.377,0,0,1,.022-.547,1.192,1.192,0,0,1,.222-.453,1.12,1.12,0,0,1,.386-.314,1.174,1.174,0,0,1,.511-.122Z" transform="translate(-399.743 -76.965)" fill="#f5f5f5"/><path d="M458.143,82.6l9.828-.247a1.434,1.434,0,0,1,.552.1,1.627,1.627,0,0,1,.483.291,1.676,1.676,0,0,1,.361.439,1.612,1.612,0,0,1,.192.541,1.435,1.435,0,0,1-.019.558,1.279,1.279,0,0,1-.222.458,1.118,1.118,0,0,1-.386.314,1.277,1.277,0,0,1-.519.125l-9.831.25-.294.008c-.1,0-.194.006-.292.011s-.192.008-.289.014-.189.014-.283.022H457.4l-.017,0h-.033a1.473,1.473,0,0,1-.539-.089,1.656,1.656,0,0,1-.475-.272,1.683,1.683,0,0,1-.364-.416,1.5,1.5,0,0,1-.208-.522,1.44,1.44,0,0,1-.005-.555,1.259,1.259,0,0,1,.2-.472,1.167,1.167,0,0,1,.369-.339,1.251,1.251,0,0,1,.505-.153l.322-.025.325-.019c.108-.006.217-.011.328-.014s.219-.008.33-.011Z" transform="translate(-437.246 -76.526)" fill="#f5f5f5"/><path d="M360.663,147.808l5.108-.3a1.221,1.221,0,0,1,.519.081,1.46,1.46,0,0,1,.461.278,1.646,1.646,0,0,1,.353.428,1.715,1.715,0,0,1,.2.539,1.489,1.489,0,0,1,0,.555,1.218,1.218,0,0,1-.192.461,1.086,1.086,0,0,1-.35.325,1.14,1.14,0,0,1-.48.139l-5.108.305a1.277,1.277,0,0,1-.522-.078,1.5,1.5,0,0,1-.461-.275,1.681,1.681,0,0,1-.55-.974,1.46,1.46,0,0,1,0-.55,1.232,1.232,0,0,1,.192-.464,1.08,1.08,0,0,1,.833-.466Z" transform="translate(-68.124 39.2)" fill="#f5f5f5"/></g><g transform="translate(1.325 98.814)"><path d="M449.25,112.6l54.77-2.121a27.521,27.521,0,0,1,9.961,1.488,31.053,31.053,0,0,1,8.892,4.806,23.4,23.4,0,0,1,3.659,3.3,33.478,33.478,0,0,1,1.838,3,32.9,32.9,0,0,1,1.513,3.2,31.352,31.352,0,0,1,1.158,3.373,30.541,30.541,0,0,1,.775,3.526l.336,2.113c.045.275.083.547.117.819s.069.547.1.816.053.541.072.811.039.536.05.805a32.262,32.262,0,0,0-4.411-9.614,33.161,33.161,0,0,0-7.088-7.6,31.121,31.121,0,0,0-8.973-4.9,27.55,27.55,0,0,0-10.075-1.519l-60.464,2.39-.65-4.35Z" transform="translate(-440.827 -110.464)" fill="#d78857"/><path d="M501.279,112.072a27.55,27.55,0,0,1,10.075,1.519,31.123,31.123,0,0,1,8.973,4.9,33.161,33.161,0,0,1,7.088,7.6,32.234,32.234,0,0,1,4.411,9.614,26.95,26.95,0,0,1-1.324,9.886,24.254,24.254,0,0,1-4.611,8.157,23.052,23.052,0,0,1-7.349,5.664,24.235,24.235,0,0,1-9.511,2.4l-60.7,2.932-7.513-50.281Z" transform="translate(-440.165 -107.643)" fill="#cb7540"/><path d="M517.125,113.925a33.2,33.2,0,0,1,2.554,2.987,32.84,32.84,0,0,1,2.193,3.287,32.393,32.393,0,0,1,1.791,3.548,39.977,39.977,0,0,1,2.5,9.553,28.276,28.276,0,0,1-.261,10.547,24.843,24.843,0,0,1-3.9,8.939,23.136,23.136,0,0,1-6.938,6.508,24.169,24.169,0,0,1-11.333,3.406l-63.487,3.115-.658-4.4,60.7-2.932a24.236,24.236,0,0,0,9.511-2.4,23.012,23.012,0,0,0,7.346-5.664,24.211,24.211,0,0,0,4.614-8.157,26.954,26.954,0,0,0,1.324-9.886c-.011-.269-.028-.536-.05-.805s-.044-.539-.072-.811-.061-.541-.094-.813-.075-.547-.119-.822l-.336-2.113a31.146,31.146,0,0,0-.772-3.526,32.05,32.05,0,0,0-2.674-6.569,32.9,32.9,0,0,0-1.841-3Z" transform="translate(-431.422 -104.316)" fill="#9e5419"/></g><path d="M455.18,116.592c6.791-.555,11.61,4.67,13.071,10.43,1.6,6.344-.866,13.337-9.262,13.981-6.8.583-11.635-4.631-13.107-10.389-1.627-6.369.849-13.407,9.3-14.023Z" transform="translate(-388.454 -0.837)" fill="#f5f5f5"/></g><g transform="translate(24.7 204.717)"><path d="M494.766,182.442a31.8,31.8,0,0,1-12.729-1.832,35.942,35.942,0,0,1-11.183-6.508,38.108,38.108,0,0,1-8.418-10.175,36.987,36.987,0,0,1-4.439-12.8l-2.662,1.974a36.894,36.894,0,0,0,4.425,12.774,38,38,0,0,0,8.4,10.147,35.866,35.866,0,0,0,11.158,6.491,31.767,31.767,0,0,0,12.7,1.824l2.748-1.893Z" transform="translate(-451.371 -144.141)" fill="#c86c34"/><path d="M495.646,181.174a31.935,31.935,0,0,1-12.785-1.846,36.129,36.129,0,0,1-11.233-6.546,38.321,38.321,0,0,1-8.456-10.225,37.178,37.178,0,0,1-4.47-12.862l-5.361,3.976a36.988,36.988,0,0,0,4.439,12.8,38.107,38.107,0,0,0,8.418,10.175,35.942,35.942,0,0,0,11.183,6.508,31.8,31.8,0,0,0,12.729,1.832l5.536-3.812Z" transform="translate(-446.714 -146.685)" fill="#9e5419"/><path d="M492.963,180.218a32.026,32.026,0,0,1-12.823-1.86,36.262,36.262,0,0,1-11.272-6.571,38.529,38.529,0,0,1-8.49-10.267,37.359,37.359,0,0,1-4.489-12.91l-4.056,3.009a37.177,37.177,0,0,0,4.47,12.862,38.322,38.322,0,0,0,8.456,10.225,36.13,36.13,0,0,0,11.233,6.546,31.934,31.934,0,0,0,12.785,1.846l4.187-2.882Z" transform="translate(-439.845 -148.61)" fill="#af602d"/><path d="M496.972,183.073a31.766,31.766,0,0,1-12.7-1.824,35.865,35.865,0,0,1-11.158-6.491,38,38,0,0,1-8.4-10.147,36.893,36.893,0,0,1-4.425-12.774l-3.965,2.94a36.635,36.635,0,0,0,4.406,12.729,37.7,37.7,0,0,0,8.365,10.108,35.678,35.678,0,0,0,11.119,6.463,31.62,31.62,0,0,0,12.665,1.813l4.092-2.818Z" transform="translate(-456.325 -142.878)" fill="#af602d"/></g></g></g><g transform="translate(139.655 127.252)"><path d="M405.5,112.334c1.421,13.631,10.047,25.294,24.445,26.358,20.267,1.977,32.3-8.012,27.524-28.915-17.293,7.071-34.2,7.152-52.03,2.043C405.463,111.987,405.482,112.156,405.5,112.334Z" transform="translate(-391.564 -60.373)" fill="#de603e"/><path d="M420.317,118.385a26.8,26.8,0,0,1,3.742.1,22.564,22.564,0,0,1,3.359.575,15.5,15.5,0,0,1,2.8.983,8.34,8.34,0,0,1,2.046,1.322,24.157,24.157,0,0,1-2.315.838c-.822.253-1.7.478-2.626.669s-1.916.355-2.959.48-2.149.219-3.315.269q-1.712.079-3.284.031t-3.026-.2c-.966-.1-1.891-.242-2.776-.411s-1.73-.369-2.537-.6a5.748,5.748,0,0,1,1.571-1.513,11.738,11.738,0,0,1,2.451-1.238,19.262,19.262,0,0,1,3.165-.877,25.749,25.749,0,0,1,3.709-.428Z" transform="translate(-376.348 -45.128)" fill="#f79398"/><path d="M457.51,109.777a40.589,40.589,0,0,1,.941,6.835c-15.011,8.026-35.908,8.134-51.616,2.093a41.262,41.262,0,0,1-1.355-6.885c17.832,5.108,34.742,5.028,52.03-2.043Z" transform="translate(-391.6 -60.373)" fill="#fff"/><path d="M403.6,111.341a2.39,2.39,0,0,1,3.154-1.663l.028.011c18.848,5.933,35.83,6.133,54.159-1.849.136-.067.275-.13.408-.194l.111-.042.022-.014c3.59-1.174,4.278,3.157,4.908,5.816,3.426,13.865-.2,29.636-15.583,33.792-8.568,2.388-18.529,2.3-26.83-1.063-13.5-5.342-20.294-20.433-20.455-34.2A2.786,2.786,0,0,1,403.6,111.341Zm5.644,5.228c1.421,13.631,10.047,25.294,24.445,26.358,20.267,1.977,32.3-8.012,27.524-28.915-17.293,7.071-34.2,7.152-52.03,2.043C409.206,116.222,409.226,116.391,409.248,116.569Z" transform="translate(-395.307 -64.608)" fill="#2d2d2d"/><path d="M412.27,91.982c5.125-.058,9.02,5.011,10.305,10.441,1.366,5.764-.208,11.935-6.363,12.829-5.286.08-9.27-5.317-10.43-10.941s.5-11.485,6.488-12.329Z" transform="translate(-356.055 -91.982)" fill="#2d2d2d"/><path d="M430.141,92.52c5.114-.033,8.973,4.825,10.33,10.142,1.508,5.911-.081,12.39-6.48,13.34-5.339.05-9.314-5.247-10.505-10.833-1.219-5.725.489-11.755,6.655-12.649Z" transform="translate(-423.119 -91.026)" fill="#2d2d2d"/></g></g><g transform="translate(241.393 312.514)"><path d="M412.64,307.293a12.146,12.146,0,0,1-8.368-14.428l.63-2.526c.417-1.618.991-3.995,1.691-7.024,1.491-6.316,3.928-17.132,6.349-29.911s4.814-27.5,6.88-41.5c1.027-7.01,2.024-13.817,2.945-20.1s1.738-12.054,2.737-16.949c1.691-9.786,3.765-16.124,6.369-16.144s4.592,6.341,6.077,16.433c.589,5.036,1.149,11.008,1.383,17.543.194,6.533.286,13.643,0,20.95a411.162,411.162,0,0,1-3.8,43.493c-1.893,13.423-4.214,24.82-5.7,31.508-.711,3.2-1.308,5.716-1.746,7.443s-.658,2.665-.663,2.69a11.709,11.709,0,0,1-14.72,8.537l-.028-.008Z" transform="translate(-403.224 -158.713)" fill="#2d2d2d"/><g transform="translate(0 128.437)"><path d="M398.26,216.154c-.408,6.566.272,10.031,11.152,12.629,8.468,2.021,32.9,3.537,40.983-1.741-4.9-18.423-31.169-21.527-39.506-22.043A11.914,11.914,0,0,0,398.26,216.154Z" transform="translate(-398.176 -204.976)" fill="#2d2d2d"/></g></g><g transform="translate(178.026 312.514)"><path d="M427.277,307.787a11.975,11.975,0,0,1-9.561-13.845l.489-2.615c.325-1.677.747-4.134,1.285-7.246,2.4-12.982,7.721-44.245,12.121-72.36,2.254-14.053,4.373-27.307,6.46-37.049s4.161-15.958,6.755-15.958,4.6,6.477,5.677,16.591,1.233,23.848.6,38.373c-1.163,29.076-5.841,61.186-8.121,74.456-.525,3.182-.944,5.691-1.269,7.4l-.491,2.671a11.856,11.856,0,0,1-13.887,9.589l-.028-.006Z" transform="translate(-389.596 -158.713)" fill="#2d2d2d"/><g transform="translate(0 128.436)"><path d="M472.952,215.885c.555,6.558-.047,10.036-10.869,12.879-8.418,2.21-32.8,4.275-41.011-.819,4.486-18.529,30.68-22.221,39-22.926A11.917,11.917,0,0,1,472.952,215.885Z" transform="translate(-421.072 -204.975)" fill="#2d2d2d"/></g></g><g transform="translate(0 215.553)"><path d="M486.31,224.161a10.978,10.978,0,0,1-8.4-3.581,12.323,12.323,0,0,1-3.107-9.273c.219-3.712.83-7.385,1.4-11.055a116.922,116.922,0,0,1,7.021-24.176A113.321,113.321,0,0,1,500.9,146.948c7.313-8.717,15.589-15.519,22.4-19.362,6.807-3.867,12.11-4.845,13.5-2.643s-1.161,6.249-5.278,12c-4.125,5.719-9.767,13.165-14.759,21.508a135.637,135.637,0,0,0-12.141,25.783,121.737,121.737,0,0,0-4.895,19.942,61.973,61.973,0,0,0-1.1,9.031,11.367,11.367,0,0,1-3.795,7.56A13.035,13.035,0,0,1,486.31,224.161Z" transform="translate(-456.225 -123.788)" fill="#2d2d2d"/><g transform="translate(0 81.899)"><ellipse cx="16.196" cy="16.196" rx="16.196" ry="16.196" transform="translate(14.115)" fill="#2d2d2d"/><path d="M490.322,179.928c-.147-.514-.344-1.033-.511-1.552a60.623,60.623,0,0,0-4.359-9.536l-.5-.891a5.687,5.687,0,0,1,1.538-7.476h0a5.366,5.366,0,0,1,7.735,1.591l.652.966A72.4,72.4,0,0,1,501,173.9c.275.655.569,1.294.827,1.971a6.569,6.569,0,0,1-.353,5.258A5.148,5.148,0,0,1,497.6,183.8a7.614,7.614,0,0,1-4.542-.852A5.444,5.444,0,0,1,490.322,179.928Z" transform="translate(-447.272 -142.35)" fill="#2d2d2d"/><path d="M490.394,186.051l.367-2.027a98.26,98.26,0,0,1,4.981-17.066l.433-1.066a5.376,5.376,0,0,1,7.193-3.207,5.668,5.668,0,0,1,3.115,6.993l-.311.988a86.744,86.744,0,0,0-3.509,15.253l-.167,1.7a5.822,5.822,0,0,1-2.14,3.731,6.84,6.84,0,0,1-4.384,1.563,5.516,5.516,0,0,1-4.223-2.021A6.3,6.3,0,0,1,490.394,186.051Z" transform="translate(-469.066 -137.404)" fill="#2d2d2d"/><path d="M494.081,182.17c.219-.7.475-1.36.736-2.007a93.462,93.462,0,0,1,8.118-15.8l.619-.958a5.4,5.4,0,0,1,7.637-1.832,5.631,5.631,0,0,1,1.791,7.465l-.494.924a82.106,82.106,0,0,0-6.291,14.17c-.167.533-.325,1.061-.436,1.577a5.41,5.41,0,0,1-2.585,3.1,8.09,8.09,0,0,1-4.484,1.1,5,5,0,0,1-4.028-2.454A6.591,6.591,0,0,1,494.081,182.17Z" transform="translate(-485.532 -140.161)" fill="#2d2d2d"/><path d="M496.584,171.457c.45-.547.877-1.124,1.349-1.641a74.482,74.482,0,0,1,11.657-10.83l.938-.694a5.345,5.345,0,0,1,7.829,1.085,5.71,5.71,0,0,1-1.044,7.551l-.769.672a62.9,62.9,0,0,0-9.206,9.75c-.344.441-.622.905-.938,1.355a5.652,5.652,0,0,1-1.569,1.4,6.86,6.86,0,0,1-2.01.741,7.154,7.154,0,0,1-4.6-.627,5.332,5.332,0,0,1-2.829-3.74,5.772,5.772,0,0,1,.047-2.549A6.283,6.283,0,0,1,496.584,171.457Z" transform="translate(-495.272 -146.572)" fill="#2d2d2d"/></g></g></g></g></svg>