<svg xmlns="http://www.w3.org/2000/svg" xmlns:xlink="http://www.w3.org/1999/xlink" width="462" height="469.332" viewBox="0 0 462 469.332"><defs><clipPath id="a"><circle cx="28.748" cy="28.748" r="28.748" transform="translate(0 40.656) rotate(-45)" fill="none"/></clipPath></defs><g transform="translate(-1032 -1406.668)"><circle cx="214" cy="214" r="214" transform="translate(1049 1448)" fill="#10c3d8"/><g transform="translate(814.58 1170.806)"><g transform="translate(442.791 275.856)"><rect width="12.907" height="394.633" fill="#003a65"/><g transform="translate(0 384.514)" style="mix-blend-mode:multiply;isolation:isolate"><rect width="12.907" height="10.119" transform="translate(0 0)" fill="#afafae"/></g><g transform="translate(6.423)"><rect width="6.484" height="394.633" fill="#002246"/></g></g><g transform="translate(433.773 617.01)"><g transform="translate(0 0)"><rect width="30.944" height="53.479" fill="#003a65"/></g><g transform="translate(0 43.056)" style="mix-blend-mode:multiply;isolation:isolate"><rect width="30.944" height="10.423" fill="#afafae"/></g><g transform="translate(15.399 0)"><rect width="15.545" height="53.479" fill="#002246"/></g></g><g transform="translate(217.42 363.407)"><g transform="translate(3.017 0)"><g transform="translate(1.447 0.443)"><rect width="275.28" height="2.024" transform="matrix(0.291, -0.957, 0.957, 0.291, 0, 263.365)" fill="#003a65"/></g><g transform="translate(71.4)"><rect width="30.296" height="5.059" transform="matrix(0.291, -0.957, 0.957, 0.291, 0, 28.985)" fill="#003a65"/></g><g transform="translate(0 242.581)"><rect width="21.728" height="5.059" transform="matrix(0.291, -0.957, 0.957, 0.291, 0, 20.787)" fill="#003a65"/></g></g><g transform="translate(82.865 0)"><g transform="translate(1.568 0.442)"><rect width="2.024" height="275.28" transform="matrix(0.957, -0.291, 0.291, 0.957, 0, 0.589)" fill="#003a65"/></g><g transform="translate(0 0)"><rect width="5.059" height="30.296" transform="translate(0 1.472) rotate(-16.916)" fill="#003a65"/></g><g transform="translate(73.893 242.581)"><rect width="5.059" height="21.728" transform="matrix(0.957, -0.291, 0.291, 0.957, 0, 1.472)" fill="#003a65"/></g></g><g transform="translate(0 259.159)"><g transform="translate(5.438 4.946)"><path d="M398.988,1784.07a94.034,94.034,0,0,0-4.709,12.858c-2.59,8.546-16.721,15.538-31.4,15.538H275.028c-14.682,0-28.814-6.992-31.4-15.538a94.018,94.018,0,0,0-4.709-12.858Z" transform="translate(-238.916 -1784.07)" fill="#ffe44e"/></g><g transform="translate(85.276 4.946)"><path d="M554.519,1784.07v28.4h44.122c14.682,0,28.814-6.992,31.4-15.538a94.052,94.052,0,0,1,4.709-12.858Z" transform="translate(-554.519 -1784.07)" fill="#ffae00"/></g><g transform="translate(5.438 4.946)" style="mix-blend-mode:multiply;isolation:isolate"><path d="M396.007,1791.6a74.652,74.652,0,0,1,2.981-7.534H238.916a74.631,74.631,0,0,1,2.98,7.534Z" transform="translate(-238.916 -1784.07)" fill="#fdab46"/></g><g transform="translate(0 0)"><path d="M388.368,1768.523c0,2.2-2.4,4-5.339,4H222.759c-2.936,0-5.339-1.8-5.339-4s2.4-4,5.339-4h160.27C385.965,1764.519,388.368,1766.321,388.368,1768.523Z" transform="translate(-217.42 -1764.519)" fill="#ffee92"/></g><g transform="translate(85.276)"><path d="M634.852,1764.518H554.519v8.009h80.333c2.936,0,5.339-1.8,5.339-4S637.788,1764.518,634.852,1764.518Z" transform="translate(-554.519 -1764.518)" fill="#ffcb0e"/></g></g></g><g transform="translate(508.472 286.992)"><g transform="translate(3.017 0)"><g transform="translate(1.45 0.443)"><rect width="275.28" height="2.024" transform="translate(0 263.367) rotate(-73.082)" fill="#002246"/></g><g transform="translate(71.4)"><rect width="30.296" height="5.059" transform="matrix(0.291, -0.957, 0.957, 0.291, 0, 28.985)" fill="#002246"/></g><g transform="translate(0 242.581)"><rect width="21.728" height="5.059" transform="matrix(0.291, -0.957, 0.957, 0.291, 0, 20.787)" fill="#002246"/></g></g><g transform="translate(82.865 0)"><g transform="translate(1.568 0.442)"><rect width="2.024" height="275.28" transform="translate(0 0.589) rotate(-16.916)" fill="#002246"/></g><g transform="translate(0)"><rect width="5.059" height="30.296" transform="translate(0 1.472) rotate(-16.916)" fill="#002246"/></g><g transform="translate(73.893 242.581)"><rect width="5.059" height="21.728" transform="matrix(0.957, -0.291, 0.291, 0.957, 0, 1.472)" fill="#002246"/></g></g><g transform="translate(0 259.159)"><g transform="translate(5.438 4.946)"><path d="M1549.53,1482a94.034,94.034,0,0,0-4.709,12.858c-2.59,8.546-16.721,15.539-31.4,15.539H1425.57c-14.682,0-28.813-6.992-31.4-15.539a94.091,94.091,0,0,0-4.709-12.858Z" transform="translate(-1389.458 -1481.996)" fill="#ffe44e"/></g><g transform="translate(85.276 4.946)"><path d="M1705.062,1482v28.4h44.122c14.682,0,28.814-6.992,31.4-15.539A94.034,94.034,0,0,1,1785.3,1482Z" transform="translate(-1705.062 -1481.996)" fill="#ffae00"/></g><g transform="translate(5.438 4.946)" style="mix-blend-mode:multiply;isolation:isolate"><path d="M1546.55,1489.53a74.6,74.6,0,0,1,2.98-7.534H1389.458a74.663,74.663,0,0,1,2.98,7.534Z" transform="translate(-1389.458 -1481.996)" fill="#fdab46"/></g><g transform="translate(0 0)"><path d="M1538.91,1466.449c0,2.2-2.4,4-5.339,4H1373.3c-2.936,0-5.339-1.8-5.339-4s2.4-4,5.339-4h160.27C1536.507,1462.445,1538.91,1464.247,1538.91,1466.449Z" transform="translate(-1367.962 -1462.445)" fill="#ffee92"/></g><g transform="translate(85.276 0)"><path d="M1785.395,1462.445h-80.333v8.008h80.333c2.936,0,5.339-1.8,5.339-4S1788.331,1462.445,1785.395,1462.445Z" transform="translate(-1705.062 -1462.445)" fill="#ffcb0e"/></g></g></g><g transform="translate(442.791 283.951)" style="mix-blend-mode:multiply;isolation:isolate"><path d="M1108.321,426.553v81.429a34.465,34.465,0,0,0,12.907-.1V426.59a34.3,34.3,0,0,0-12.907-.036Z" transform="translate(-1108.321 -425.959)" fill="#afafae"/></g><g transform="translate(291.66 274.857)"><g transform="translate(10.69 7.595)"><path d="M845.785,427.795,704.847,482.921,555.228,505.649l-2.08-7.762,142.584-48.681,147.972-29.173Z" transform="translate(-553.148 -420.032)" fill="#002246"/></g><g transform="translate(10.69 36.76)"><path d="M695.772,535.324,553.151,584.016l2.08,7.762,149.58-22.722Z" transform="translate(-553.151 -535.324)" fill="#003a65"/></g><g transform="translate(290.81 0)"><path d="M1678.532,392.088a11.472,11.472,0,1,0-4.588,20.7q.5-.089.985-.219a11.472,11.472,0,0,0,3.6-20.477Z" transform="translate(-1660.475 -390.011)" fill="#002246"/><g transform="translate(5.478 5.477)"><path d="M1691.567,412.746a6,6,0,1,0-2.4,10.818q.262-.047.515-.115a6,6,0,0,0,1.883-10.7Z" transform="translate(-1682.128 -411.66)" fill="#ffe555"/><g transform="translate(4.499)"><path d="M1704.853,412.746a5.958,5.958,0,0,0-4.481-.993c-.156.028-.308.066-.458.1l3.1,11.577a6,6,0,0,0,1.837-10.689Z" transform="translate(-1699.914 -411.66)" fill="#ffae00"/></g></g></g><g transform="translate(113.92 28.777)" style="mix-blend-mode:multiply;isolation:isolate"><path d="M961.224,525.193a42.868,42.868,0,0,0,8.837,26.3l39.63-6.02,36.962-14.458a42.7,42.7,0,0,0-5.543-27.249l-40.533,7.991Z" transform="translate(-961.224 -503.766)" fill="#afafae"/></g><g transform="translate(0 77.922)"><path d="M528.95,700.117a11.473,11.473,0,1,0-4.588,20.7c.334-.06.663-.133.985-.219a11.472,11.472,0,0,0,3.6-20.477Z" transform="translate(-510.892 -698.039)" fill="#003a65"/><g transform="translate(5.478 5.477)"><path d="M541.985,720.775a6,6,0,1,0-2.4,10.818c.175-.031.347-.07.515-.115a6,6,0,0,0,1.883-10.7Z" transform="translate(-532.546 -719.689)" fill="#ffe555"/><g transform="translate(4.499)"><path d="M555.271,720.775a5.96,5.96,0,0,0-4.481-.993c-.157.028-.308.066-.459.1l3.1,11.578a6,6,0,0,0,1.837-10.689Z" transform="translate(-550.332 -719.689)" fill="#ffae00"/></g></g></g></g><g transform="translate(408.357 284.547)"><g transform="translate(3.19 3.181)"><path d="M1038.168,444.411a37.2,37.2,0,0,0-15.83-3.522,37.512,37.512,0,0,0-15.873,71.507,37.192,37.192,0,0,0,15.83,3.522,37.512,37.512,0,0,0,15.873-71.507Z" transform="translate(-984.812 -440.889)" fill="#003a65"/></g><g transform="translate(40.672 3.181)"><path d="M1148.855,444.411a37.2,37.2,0,0,0-15.83-3.522l-.044,0v75.027h0a37.512,37.512,0,0,0,15.874-71.507Z" transform="translate(-1132.981 -440.889)" fill="#002246"/></g><g transform="translate(0 0)"><circle cx="28.776" cy="28.776" r="28.776" transform="translate(0 40.695) rotate(-45)" fill="#fff"/><g transform="translate(4.822 4.822)"><g transform="translate(0 0)"><circle cx="25.377" cy="25.377" r="25.377" transform="translate(0 35.888) rotate(-45)" fill="none"/></g><g transform="translate(34.583 9.6)"><g transform="translate(0 47.391)"><path d="M1129.237,677.8a1.268,1.268,0,0,1-1.268-1.268v-2.6a1.268,1.268,0,0,1,2.536,0v2.6A1.268,1.268,0,0,1,1129.237,677.8Z" transform="translate(-1127.969 -672.666)" fill="#002246"/></g><path d="M1129.237,490.462a1.268,1.268,0,0,1-1.268-1.268v-2.6a1.268,1.268,0,0,1,2.536,0v2.6A1.268,1.268,0,0,1,1129.237,490.462Z" transform="translate(-1127.969 -485.327)" fill="#002246"/></g><g transform="translate(9.588 34.595)"><path d="M1033.03,586.669h-2.6a1.268,1.268,0,0,1,0-2.536h2.6a1.268,1.268,0,0,1,0,2.536Z" transform="translate(-1029.163 -584.133)" fill="#002246"/><g transform="translate(47.391)"><path d="M1220.369,586.669h-2.6a1.268,1.268,0,0,1,0-2.536h2.6a1.268,1.268,0,0,1,0,2.536Z" transform="translate(-1216.502 -584.133)" fill="#002246"/></g></g><g transform="translate(25.337 25.337)"><circle cx="7.698" cy="7.698" r="7.698" transform="translate(0 7.869) rotate(-30.736)" fill="#002246"/></g><g transform="translate(22.067 22.12)"><path d="M1092.315,550.233a1.643,1.643,0,0,1-1.163-.48l-12.173-12.12a1.648,1.648,0,1,1,2.326-2.336l12.173,12.12a1.648,1.648,0,0,1-1.163,2.816Z" transform="translate(-1078.494 -534.817)" fill="#002246"/></g><g transform="translate(31.269 31.269)"><path d="M1122.755,572.337a4.619,4.619,0,1,0,0,6.532A4.619,4.619,0,0,0,1122.755,572.337Z" transform="translate(-1114.87 -570.984)" fill="#e95900"/></g></g></g><g transform="translate(0.07 0.029)"><g transform="translate(0 0)" clip-path="url(#a)"><g transform="translate(10.097 10.097)"><path d="M1031.294,515.265a28.021,28.021,0,1,1,28.021,28.021A28.052,28.052,0,0,1,1031.294,515.265Zm-1.406,0a29.427,29.427,0,1,0,29.427-29.426A29.46,29.46,0,0,0,1029.888,515.265Z" transform="translate(-1025.462 -481.413)" fill="#fff" style="mix-blend-mode:multiply;isolation:isolate"/><path d="M1030.731,514.738a28.055,28.055,0,1,1,28.056,28.056A28.087,28.087,0,0,1,1030.731,514.738Zm-1.407,0a29.463,29.463,0,1,0,29.463-29.463A29.5,29.5,0,0,0,1029.324,514.738Z" transform="translate(-1025.041 -480.992)" fill="#fcfcfc" style="mix-blend-mode:multiply;isolation:isolate"/><path d="M1030.169,514.209a28.09,28.09,0,1,1,28.09,28.09A28.122,28.122,0,0,1,1030.169,514.209Zm-1.409,0a29.5,29.5,0,1,0,29.5-29.5A29.533,29.533,0,0,0,1028.76,514.209Z" transform="translate(-1024.62 -480.57)" fill="#f9f9f9" style="mix-blend-mode:multiply;isolation:isolate"/><path d="M1029.606,513.682a28.125,28.125,0,1,1,28.125,28.125A28.157,28.157,0,0,1,1029.606,513.682Zm-1.411,0a29.536,29.536,0,1,0,29.536-29.536A29.57,29.57,0,0,0,1028.195,513.682Z" transform="translate(-1024.198 -480.149)" fill="#f6f6f6" style="mix-blend-mode:multiply;isolation:isolate"/><path d="M1029.044,513.154a28.16,28.16,0,1,1,28.16,28.16A28.192,28.192,0,0,1,1029.044,513.154Zm-1.413,0a29.573,29.573,0,1,0,29.573-29.572A29.607,29.607,0,0,0,1027.631,513.154Z" transform="translate(-1023.776 -479.727)" fill="#f3f3f3" style="mix-blend-mode:multiply;isolation:isolate"/><path d="M1028.482,512.626a28.194,28.194,0,1,1,28.194,28.195A28.226,28.226,0,0,1,1028.482,512.626Zm-1.415,0a29.609,29.609,0,1,0,29.609-29.609A29.643,29.643,0,0,0,1027.067,512.626Z" transform="translate(-1023.355 -479.305)" fill="#f0f0f0" style="mix-blend-mode:multiply;isolation:isolate"/><path d="M1027.918,512.1a28.229,28.229,0,1,1,28.23,28.229A28.262,28.262,0,0,1,1027.918,512.1Zm-1.416,0a29.646,29.646,0,1,0,29.646-29.646A29.68,29.68,0,0,0,1026.5,512.1Z" transform="translate(-1022.933 -478.884)" fill="#ededed" style="mix-blend-mode:multiply;isolation:isolate"/><path d="M1027.356,511.57a28.264,28.264,0,1,1,28.264,28.264A28.3,28.3,0,0,1,1027.356,511.57Zm-1.418,0a29.682,29.682,0,1,0,29.682-29.682A29.716,29.716,0,0,0,1025.938,511.57Z" transform="translate(-1022.512 -478.462)" fill="#eaeaea" style="mix-blend-mode:multiply;isolation:isolate"/><path d="M1026.793,511.043a28.3,28.3,0,1,1,28.3,28.3A28.331,28.331,0,0,1,1026.793,511.043Zm-1.419,0a29.719,29.719,0,1,0,29.719-29.719A29.753,29.753,0,0,0,1025.374,511.043Z" transform="translate(-1022.09 -478.04)" fill="#e7e7e7" style="mix-blend-mode:multiply;isolation:isolate"/><path d="M1026.231,510.515a28.334,28.334,0,1,1,28.334,28.334A28.366,28.366,0,0,1,1026.231,510.515Zm-1.422,0a29.755,29.755,0,1,0,29.755-29.755A29.789,29.789,0,0,0,1024.809,510.515Z" transform="translate(-1021.668 -477.619)" fill="#e4e4e4" style="mix-blend-mode:multiply;isolation:isolate"/><path d="M1025.668,509.987a28.369,28.369,0,1,1,28.368,28.368A28.4,28.4,0,0,1,1025.668,509.987Zm-1.423,0a29.792,29.792,0,1,0,29.792-29.792A29.825,29.825,0,0,0,1024.245,509.987Z" transform="translate(-1021.247 -477.197)" fill="#e1e1e1" style="mix-blend-mode:multiply;isolation:isolate"/><path d="M1025.106,509.459a28.4,28.4,0,1,1,28.4,28.4A28.436,28.436,0,0,1,1025.106,509.459Zm-1.425,0a29.828,29.828,0,1,0,29.828-29.828A29.862,29.862,0,0,0,1023.681,509.459Z" transform="translate(-1020.826 -476.776)" fill="#dedede" style="mix-blend-mode:multiply;isolation:isolate"/><path d="M1024.543,508.932a28.438,28.438,0,1,1,28.438,28.438A28.47,28.47,0,0,1,1024.543,508.932Zm-1.427,0a29.865,29.865,0,1,0,29.865-29.865A29.9,29.9,0,0,0,1023.116,508.932Z" transform="translate(-1020.403 -476.354)" fill="#dbdbdb" style="mix-blend-mode:multiply;isolation:isolate"/><path d="M1023.98,508.4a28.473,28.473,0,1,1,28.473,28.473A28.505,28.505,0,0,1,1023.98,508.4Zm-1.429,0a29.9,29.9,0,1,0,29.9-29.9A29.935,29.935,0,0,0,1022.552,508.4Z" transform="translate(-1019.982 -475.932)" fill="#d8d8d8" style="mix-blend-mode:multiply;isolation:isolate"/><path d="M1023.417,507.876a28.508,28.508,0,1,1,28.508,28.508A28.54,28.54,0,0,1,1023.417,507.876Zm-1.431,0a29.938,29.938,0,1,0,29.938-29.938A29.972,29.972,0,0,0,1021.987,507.876Z" transform="translate(-1019.56 -475.511)" fill="#d5d5d5" style="mix-blend-mode:multiply;isolation:isolate"/><path d="M1022.855,507.348a28.542,28.542,0,1,1,28.543,28.543A28.575,28.575,0,0,1,1022.855,507.348Zm-1.432,0a29.974,29.974,0,1,0,29.975-29.974A30.009,30.009,0,0,0,1021.423,507.348Z" transform="translate(-1019.139 -475.09)" fill="#d2d2d2" style="mix-blend-mode:multiply;isolation:isolate"/><path d="M1022.293,506.82A28.577,28.577,0,1,1,1050.87,535.4,28.61,28.61,0,0,1,1022.293,506.82Zm-1.434,0a30.011,30.011,0,1,0,30.011-30.011A30.045,30.045,0,0,0,1020.859,506.82Z" transform="translate(-1018.717 -474.668)" fill="#cfcfce" style="mix-blend-mode:multiply;isolation:isolate"/><path d="M1021.73,506.292a28.612,28.612,0,1,1,28.612,28.612A28.644,28.644,0,0,1,1021.73,506.292Zm-1.436,0a30.048,30.048,0,1,0,30.048-30.047A30.082,30.082,0,0,0,1020.294,506.292Z" transform="translate(-1018.295 -474.246)" fill="#cccccb" style="mix-blend-mode:multiply;isolation:isolate"/><path d="M1021.167,505.765a28.647,28.647,0,1,1,28.647,28.647A28.679,28.679,0,0,1,1021.167,505.765Zm-1.437,0a30.084,30.084,0,1,0,30.084-30.084A30.118,30.118,0,0,0,1019.73,505.765Z" transform="translate(-1017.874 -473.825)" fill="#c9c8c8" style="mix-blend-mode:multiply;isolation:isolate"/><path d="M1020.6,505.237a28.682,28.682,0,1,1,28.682,28.682A28.714,28.714,0,0,1,1020.6,505.237Zm-1.439,0a30.121,30.121,0,1,0,30.121-30.121A30.155,30.155,0,0,0,1019.166,505.237Z" transform="translate(-1017.453 -473.403)" fill="#c5c5c5" style="mix-blend-mode:multiply;isolation:isolate"/><path d="M1020.042,504.709a28.716,28.716,0,1,1,28.716,28.717A28.749,28.749,0,0,1,1020.042,504.709Zm-1.441,0a30.157,30.157,0,1,0,30.157-30.157A30.191,30.191,0,0,0,1018.6,504.709Z" transform="translate(-1017.031 -472.982)" fill="#c2c2c2" style="mix-blend-mode:multiply;isolation:isolate"/><path d="M1019.479,504.182a28.751,28.751,0,1,1,28.751,28.751A28.784,28.784,0,0,1,1019.479,504.182Zm-1.442,0a30.194,30.194,0,1,0,30.194-30.194A30.228,30.228,0,0,0,1018.037,504.182Z" transform="translate(-1016.609 -472.56)" fill="#bfbfbf" style="mix-blend-mode:multiply;isolation:isolate"/><path d="M1018.917,503.653a28.786,28.786,0,1,1,28.786,28.786A28.819,28.819,0,0,1,1018.917,503.653Zm-1.444,0a30.23,30.23,0,1,0,30.23-30.23A30.264,30.264,0,0,0,1017.473,503.653Z" transform="translate(-1016.188 -472.138)" fill="#bcbcbc" style="mix-blend-mode:multiply;isolation:isolate"/><path d="M1018.354,503.126a28.821,28.821,0,1,1,28.821,28.821A28.854,28.854,0,0,1,1018.354,503.126Zm-1.446,0a30.267,30.267,0,1,0,30.267-30.267A30.3,30.3,0,0,0,1016.908,503.126Z" transform="translate(-1015.766 -471.717)" fill="#b9b9b9" style="mix-blend-mode:multiply;isolation:isolate"/><path d="M1017.792,502.6a28.856,28.856,0,1,1,28.856,28.856A28.888,28.888,0,0,1,1017.792,502.6Zm-1.448,0a30.3,30.3,0,1,0,30.3-30.3A30.338,30.338,0,0,0,1016.344,502.6Z" transform="translate(-1015.344 -471.295)" fill="#b6b6b6" style="mix-blend-mode:multiply;isolation:isolate"/><path d="M1017.23,502.07a28.89,28.89,0,1,1,28.89,28.89A28.923,28.923,0,0,1,1017.23,502.07Zm-1.45,0a30.34,30.34,0,1,0,30.34-30.34A30.374,30.374,0,0,0,1015.78,502.07Z" transform="translate(-1014.923 -470.873)" fill="#b3b3b3" style="mix-blend-mode:multiply;isolation:isolate"/><path d="M1016.666,501.542a28.925,28.925,0,1,1,28.925,28.925A28.958,28.958,0,0,1,1016.666,501.542Zm-1.451,0a30.377,30.377,0,1,0,30.376-30.376A30.411,30.411,0,0,0,1015.215,501.542Z" transform="translate(-1014.501 -470.452)" fill="#b0b0b0" style="mix-blend-mode:multiply;isolation:isolate"/><path d="M1016.1,501.014a28.96,28.96,0,1,1,28.96,28.96A28.993,28.993,0,0,1,1016.1,501.014Zm-1.453,0a30.413,30.413,0,1,0,30.413-30.413A30.447,30.447,0,0,0,1014.651,501.014Z" transform="translate(-1014.08 -470.03)" fill="#adadad" style="mix-blend-mode:multiply;isolation:isolate"/><path d="M1015.541,500.486a28.995,28.995,0,1,1,28.995,28.995A29.028,29.028,0,0,1,1015.541,500.486Zm-1.455,0a30.45,30.45,0,1,0,30.45-30.449A30.484,30.484,0,0,0,1014.086,500.486Z" transform="translate(-1013.658 -469.609)" fill="#aaa" style="mix-blend-mode:multiply;isolation:isolate"/><path d="M1014.979,499.959a29.03,29.03,0,1,1,29.029,29.03A29.062,29.062,0,0,1,1014.979,499.959Zm-1.457,0a30.486,30.486,0,1,0,30.486-30.486A30.521,30.521,0,0,0,1013.522,499.959Z" transform="translate(-1013.236 -469.187)" fill="#a7a7a6" style="mix-blend-mode:multiply;isolation:isolate"/><path d="M1014.416,499.431a29.064,29.064,0,1,1,29.064,29.064A29.1,29.1,0,0,1,1014.416,499.431Zm-1.458,0a30.523,30.523,0,1,0,30.523-30.523A30.557,30.557,0,0,0,1012.958,499.431Z" transform="translate(-1012.815 -468.765)" fill="#a4a4a3" style="mix-blend-mode:multiply;isolation:isolate"/><path d="M1013.853,498.9a29.1,29.1,0,1,1,29.1,29.1A29.132,29.132,0,0,1,1013.853,498.9Zm-1.46,0a30.559,30.559,0,1,0,30.559-30.559A30.594,30.594,0,0,0,1012.393,498.9Z" transform="translate(-1012.393 -468.344)" fill="#a1a1a0" style="mix-blend-mode:multiply;isolation:isolate"/></g></g></g></g><g transform="translate(335.524 664.901)"><g transform="translate(5.438)"><path d="M922.361,1954.013s-2.119,1.943-4.709-6.6-16.721-15.539-31.4-15.539H741.9c-14.682,0-28.814,6.992-31.4,15.539s-4.709,6.6-4.709,6.6Z" transform="translate(-705.785 -1931.871)" fill="#003a65"/></g><g transform="translate(113.528)"><path d="M1133.07,1954.013v-22.142h72.374c14.682,0,28.814,6.992,31.4,15.539s4.709,6.6,4.709,6.6Z" transform="translate(-1133.07 -1931.871)" fill="#002246"/></g><g transform="translate(6.666 14.608)" style="mix-blend-mode:multiply;isolation:isolate"><path d="M710.638,1997.151h214.12c-.863-.484-2.106-2.064-3.481-6.6-.095-.312-.209-.622-.335-.931H714.454c-.125.308-.24.618-.335.931C712.744,1995.087,711.5,1996.667,710.638,1997.151Z" transform="translate(-710.638 -1989.617)" fill="#afafae"/></g><g transform="translate(0 19.079)"><path d="M906.4,2007.292H689.628c-2.936,0-5.339,1.8-5.339,4v2.209H911.74V2011.3C911.74,2009.094,909.338,2007.292,906.4,2007.292Z" transform="translate(-684.289 -2007.292)" fill="#003a65"/></g><g transform="translate(113.726 19.079)"><path d="M1242.239,2007.292H1133.852v6.214h113.726V2011.3C1247.578,2009.094,1245.175,2007.292,1242.239,2007.292Z" transform="translate(-1133.852 -2007.292)" fill="#002246"/></g></g><g transform="translate(428.44 235.862)"><path d="M1081.167,237.814a20.619,20.619,0,0,0-8.775-1.952,20.794,20.794,0,0,0-8.8,39.639,20.616,20.616,0,0,0,8.775,1.952,20.794,20.794,0,0,0,8.8-39.638Z" transform="translate(-1051.59 -235.862)" fill="#003a65"/><g transform="translate(20.777)"><path d="M1142.524,237.814a20.62,20.62,0,0,0-8.775-1.952h-.025v41.59h0a20.794,20.794,0,0,0,8.8-39.638Z" transform="translate(-1133.724 -235.862)" fill="#002246"/></g></g><g transform="translate(434.918 242.315)"><g transform="translate(0 0)"><path d="M1102.526,266.5a14.341,14.341,0,1,0-12.235,23.5c.423.036.844.054,1.26.054a14.341,14.341,0,0,0,10.974-23.559Z" transform="translate(-1077.199 -261.372)" fill="#002246"/></g><g transform="translate(2.945 2.945)"><path d="M1108.966,277.085a11.4,11.4,0,1,0-9.723,18.679c.336.029.671.043,1,.043a11.4,11.4,0,0,0,8.721-18.722Z" transform="translate(-1088.839 -273.012)" fill="#ffe555"/><g transform="translate(11.497 0.012)"><path d="M1142.918,277.12a11.322,11.322,0,0,0-7.736-4.028c-.3-.026-.6-.03-.893-.033v22.779a11.394,11.394,0,0,0,8.63-18.718Z" transform="translate(-1134.288 -273.059)" fill="#ffae00"/></g></g></g></g></g></svg>