<svg xmlns="http://www.w3.org/2000/svg" width="124" height="46" fill="none" viewBox="0 0 124 46">
  <mask id="a" width="124" height="46" x="0" y="0" maskUnits="userSpaceOnUse" style="mask-type:luminance">
    <path fill="#fff" d="M123.024.002v45.025H0V.002h123.024Z"/>
  </mask>
  <g mask="url(#a)">
    <path fill="#C8C8C8" d="M43.247 16.466v16.383L29.833 16.466h-5.164v26.983h6.169V27.066L44.29 43.449h5.127V16.466h-6.17ZM8.789 43.91c6.359 0 9.714-3.277 9.714-9.944v-17.5H2.814v5.01H12.3v12.837c0 2.969-1.311 4.472-3.816 4.472-1.928 0-3.545-1-5.011-2.97L0 39.98a10.852 10.852 0 0 0 8.789 3.933m108.028-6.479a9.921 9.921 0 0 1-4.858 1.156 8.33 8.33 0 0 1-8.75-8.634c0-5.048 3.584-8.635 8.827-8.635a9.13 9.13 0 0 1 6.977 3.046l4.008-3.7c-2.62-3.045-6.553-4.664-11.294-4.664-8.6 0-14.841 5.82-14.841 13.955s6.244 13.953 14.725 13.953a18.614 18.614 0 0 0 10.908-3.431V29.534h-5.705v7.9h.003Zm-32.994 6.475c4.7 0 8.6-1.7 11.139-4.819l-4.008-3.7a8.599 8.599 0 0 1-6.784 3.2 8.635 8.635 0 0 1 0-17.269 8.682 8.682 0 0 1 6.784 3.161l4.008-3.7c-2.544-3.083-6.436-4.78-11.1-4.78-8.4 0-14.647 5.82-14.647 13.955s6.244 13.952 14.608 13.952Z"/>
  </g>
  <path fill="#C8C8C8" d="M62.011 15.01v30.017h-2.713V15.01h2.713Z"/>
</svg>
