<svg xmlns="http://www.w3.org/2000/svg" width="163" height="33" fill="none" viewBox="0 0 163 33">
  <path fill="#C8C8C8" d="m149.323 22.89.071.007-.071-.06v.054ZM6.342 22.051V11.487H.618v11.256c0 .391.014.771.037 1.144a329.3 329.3 0 0 1 5.736-.514 16.893 16.893 0 0 1-.05-1.322Zm11.717-10.564h-5.721V22.93a648.92 648.92 0 0 1 5.724-.365l-.003-11.077Zm-3.842-7.261L10.702.997 5.266 7.22l2.63 2.343 6.32-5.337ZM2.463 29.521a6.499 6.499 0 0 0 2.708 1.94c1.371.5 2.825.736 4.284.692 1.62.006 3.239-.117 4.84-.365a31.746 31.746 0 0 0 3.765-.787V27.26c-6.334.54-11.735 1.146-15.925 1.812.103.15.211.306.328.45Zm25.882 2.172h4.75a85.438 85.438 0 0 0 2.617-5.639c-3.388.185-6.638.385-9.73.6a88.476 88.476 0 0 0 2.363 5.04Zm1.348-9.949a218.143 218.143 0 0 1-1.119-3.476c-.373-1.19-.733-2.368-1.081-3.534a89.446 89.446 0 0 1-.907-3.246h-6.069c1.152 3.862 2.369 7.442 3.651 10.74 1.824-.093 3.69-.183 5.6-.27a6.055 6.055 0 0 1-.075-.214Zm11.222-10.257h-5.92c-.256 1-.558 2.082-.905 3.246a282.577 282.577 0 0 1-1.08 3.534c-.373 1.191-.752 2.35-1.137 3.476l-.042.123c1.855-.08 3.742-.156 5.663-.228a144.263 144.263 0 0 0 3.42-10.15Zm18.017 2.094a8.927 8.927 0 0 0-6.8-2.632 9.69 9.69 0 0 0-3.592.691 9.023 9.023 0 0 0-3.093 2.036 10.086 10.086 0 0 0-2.171 3.361 12.154 12.154 0 0 0-.82 4.425c6.106-.2 12.469-.366 18.966-.485-.054-3.231-.884-5.696-2.49-7.396Zm-10.6 5.973c.078-.49.2-.972.365-1.44.156-.457.397-.88.71-1.249A3.423 3.423 0 0 1 50.56 16c.52-.23 1.084-.34 1.652-.326.577-.019 1.15.1 1.671.346a3.49 3.49 0 0 1 1.114.883c.296.363.518.78.653 1.23a6 6 0 0 1 .25 1.42l-7.568.001Zm-5.246 6.339a8.766 8.766 0 0 0 1.959 3.323 9.238 9.238 0 0 0 3.342 2.209c1.516.568 3.126.842 4.744.807.718 0 1.437-.04 2.151-.116a27.265 27.265 0 0 0 2.017-.288 16.22 16.22 0 0 0 1.709-.4c.422-.12.833-.274 1.229-.461l-.768-4.648c-.797.328-1.628.566-2.478.71-1.02.193-2.055.29-3.092.289a6.638 6.638 0 0 1-3.918-1.037 4.116 4.116 0 0 1-.892-.851c-2.057.082-4.079.169-6.067.26.022.064.042.135.064.203ZM58.203 3.917l-2.2-2.536-3.854 2.958-3.854-2.958-2.119 2.536L52.15 9.18l6.053-5.263ZM71.57 16.25c.373-.1.751-.17 1.134-.211.426-.06.856-.094 1.287-.1.748-.005 1.494.066 2.228.21a48.87 48.87 0 0 1 1.805.4l.96-4.724a6.168 6.168 0 0 0-1.113-.326 22.89 22.89 0 0 0-2.612-.385 13.488 13.488 0 0 0-1.114-.058 20.926 20.926 0 0 0-4.667.48 34.42 34.42 0 0 0-3.631 1.018v8.342c1.9-.029 3.809-.054 5.724-.074V16.25Zm-5.723 15.444h5.724v-6.946c-1.923.04-3.83.085-5.724.134v6.812Zm31.884-10.882v-1.6a12.91 12.91 0 0 0-.422-3.419 6.083 6.083 0 0 0-1.441-2.612 6.566 6.566 0 0 0-2.705-1.65 13.254 13.254 0 0 0-4.226-.577c-.667 0-1.326.034-1.978.1a44.38 44.38 0 0 0-1.863.23c-.59.09-1.134.193-1.633.307a17.9 17.9 0 0 0-1.248.327l.73 4.61c.797-.283 1.62-.484 2.458-.6a19.63 19.63 0 0 1 2.88-.21 4.28 4.28 0 0 1 3.074.882 3.17 3.17 0 0 1 .884 2.343v.538a8.935 8.935 0 0 0-1.4-.25 18.25 18.25 0 0 0-1.978-.1 15.323 15.323 0 0 0-3.189.327 8.6 8.6 0 0 0-2.727 1.056 5.722 5.722 0 0 0-.362.244c5.064-.012 10.132.005 15.146.054ZM94.236 4.226 90.722.997 85.286 7.22l2.632 2.343 6.318-5.337Zm-1.997 23.319a11.1 11.1 0 0 1-1.229.115 31.89 31.89 0 0 1-1.613.039 4.986 4.986 0 0 1-2.478-.52 1.963 1.963 0 0 1-.9-1.862 2.281 2.281 0 0 1 .135-.8c-1.933.02-3.857.045-5.772.073-.033.292-.05.587-.049.88a7.088 7.088 0 0 0 .613 3.115 5.181 5.181 0 0 0 1.767 2.055 7.702 7.702 0 0 0 2.747 1.133c1.169.241 2.36.357 3.553.346 1.774.021 3.546-.1 5.3-.365 1.46-.243 2.6-.454 3.419-.634v-6.677c-1.834.005-3.665.013-5.493.025v3.077Zm25.545-23.628-2.2-2.536-3.854 2.958-3.854-2.958-2.12 2.536 5.973 5.263 6.055-5.263Zm-15.232 21.881a8.747 8.747 0 0 0 1.883 3.362 8.959 8.959 0 0 0 3.284 2.247c1.518.584 3.136.865 4.763.826a16.49 16.49 0 0 0 3.3-.307 13.458 13.458 0 0 0 2.5-.73l-.807-4.687a9.475 9.475 0 0 1-2.19.615c-.737.123-1.482.187-2.228.192-1.947 0-3.31-.5-4.091-1.5a4.856 4.856 0 0 1-.736-1.363c-2.004-.01-4.009-.016-6.015-.017.087.46.2.915.337 1.362Zm6.492-8.357a4.531 4.531 0 0 1 3.784-1.575 9.248 9.248 0 0 1 2.151.23c.6.142 1.19.321 1.767.538l1.191-4.571a14.414 14.414 0 0 0-2.612-.826 14.13 14.13 0 0 0-2.958-.288 10.776 10.776 0 0 0-4.379.845 9.664 9.664 0 0 0-5.321 5.666 11.697 11.697 0 0 0-.688 3.4c1.957.027 3.903.06 5.837.1a6.142 6.142 0 0 1 1.228-3.519Zm11.795 8.452a8.759 8.759 0 0 0 1.959 3.323 9.234 9.234 0 0 0 3.342 2.21c1.516.567 3.126.841 4.744.806.719 0 1.437-.038 2.151-.115a27.227 27.227 0 0 0 2.017-.288 16.243 16.243 0 0 0 1.709-.4 7.899 7.899 0 0 0 1.229-.46l-.768-4.649c-.797.328-1.628.567-2.478.711-1.019.193-2.055.29-3.092.288a6.64 6.64 0 0 1-3.918-1.037 3.848 3.848 0 0 1-1.34-1.61c-1.96-.037-3.929-.07-5.907-.1.092.447.21.888.352 1.321Zm18.342-4.572c0-3.405-.833-5.985-2.5-7.74a8.922 8.922 0 0 0-6.8-2.632c-1.23 0-2.449.235-3.592.691a9.026 9.026 0 0 0-3.092 2.036 10.083 10.083 0 0 0-2.171 3.361 11.996 11.996 0 0 0-.817 4.236 657.03 657.03 0 0 1 18.943.872c.019-.29.029-.569.029-.824Zm-13.1-1.767c.078-.49.2-.972.365-1.44.157-.457.397-.88.71-1.249a3.43 3.43 0 0 1 1.153-.865 3.862 3.862 0 0 1 1.652-.326c.577-.019 1.149.1 1.671.346a3.49 3.49 0 0 1 1.114.883c.296.363.518.78.653 1.23a5.9 5.9 0 0 1 .25 1.42l-7.568.001Zm32.96 6.252-.01-.013a782.802 782.802 0 0 0-7.167-.345 32.85 32.85 0 0 1 1.254 1.605 54.788 54.788 0 0 1 1.668 2.426c.524.809.991 1.547 1.4 2.214h6.582a40.21 40.21 0 0 0-1.613-2.809 43.051 43.051 0 0 0-2.114-3.078Z"/>
  <path fill="#C8C8C8" d="m149.323 22.837.071.06c2.813.244 5.483.51 7.987.8-.239-.292-.476-.587-.72-.873a26.423 26.423 0 0 0-2.382-2.482 110.088 110.088 0 0 0 4.245-4.39 257.775 257.775 0 0 0 3.976-4.465h-6.806c-.359.433-.787.942-1.286 1.527s-1.029 1.202-1.592 1.852a110.23 110.23 0 0 1-1.746 1.967 390.95 390.95 0 0 1-1.746 1.909V1.882l-5.724.922V22.44c1.965.14 3.873.29 5.724.449l-.001-.052Zm-5.724 8.857h5.724v-6.353c-1.888-.077-3.796-.15-5.724-.216v6.569Z"/>
</svg>
